<svg width="183" height="34" viewBox="0 0 183 34" fill="none" xmlns="http://www.w3.org/2000/svg">
<rect width="183" height="34" fill="#13132F"/>
<path d="M8.388 12.13H3.42L2.052 16H0.306L4.896 3.112H7.02L11.538 16H9.72L8.388 12.13ZM7.92 10.744L5.94 4.894L3.834 10.744H7.92ZM14.8549 3.112V14.542H21.2089V16H13.2169V3.112H14.8549ZM25.0591 3.112V16H23.3851V3.112H25.0591ZM33.383 10.942V16H31.745V10.942L26.777 3.112H28.793L32.591 9.394L36.263 3.112H38.225L33.383 10.942ZM41.5599 10.132V14.542H49.1559V16H39.9219V3.112H48.8499V4.57H41.5599V8.674H48.5799V10.132H41.5599ZM57.0628 16H55.2808L50.6548 3.112H52.4188L56.2168 14.02L59.7808 3.112H61.5268L57.0628 16ZM72.4577 6.82H70.9097C70.8737 5.14 69.7997 4.3 67.6877 4.3C66.8237 4.3 66.1277 4.498 65.5997 4.894C65.0717 5.278 64.8077 5.788 64.8077 6.424C64.8077 6.904 64.9637 7.288 65.2757 7.576C65.5997 7.852 66.1517 8.092 66.9317 8.296L69.9917 9.088C71.9357 9.604 72.9077 10.684 72.9077 12.328C72.9077 13.516 72.4337 14.482 71.4857 15.226C70.6457 15.874 69.4397 16.198 67.8677 16.198C65.8757 16.198 64.4297 15.598 63.5297 14.398C63.0497 13.75 62.7977 12.88 62.7737 11.788H64.3217V11.824C64.3217 12.76 64.6397 13.486 65.2757 14.002C65.9237 14.506 66.8237 14.758 67.9757 14.758C69.0317 14.758 69.8177 14.584 70.3337 14.236C70.9457 13.816 71.2517 13.228 71.2517 12.472C71.2517 11.512 70.4657 10.834 68.8937 10.438L65.6897 9.61C64.0097 9.178 63.1697 8.188 63.1697 6.64C63.1697 5.416 63.6317 4.468 64.5557 3.796C65.3597 3.208 66.4217 2.914 67.7417 2.914C69.6137 2.914 70.9517 3.46 71.7557 4.552C72.2237 5.188 72.4577 5.878 72.4577 6.622C72.4577 6.658 72.4577 6.724 72.4577 6.82ZM87.5573 6.82H86.0093C85.9733 5.14 84.8993 4.3 82.7873 4.3C81.9233 4.3 81.2273 4.498 80.6993 4.894C80.1713 5.278 79.9073 5.788 79.9073 6.424C79.9073 6.904 80.0633 7.288 80.3753 7.576C80.6993 7.852 81.2513 8.092 82.0313 8.296L85.0913 9.088C87.0353 9.604 88.0073 10.684 88.0073 12.328C88.0073 13.516 87.5333 14.482 86.5853 15.226C85.7453 15.874 84.5393 16.198 82.9673 16.198C80.9753 16.198 79.5293 15.598 78.6293 14.398C78.1493 13.75 77.8973 12.88 77.8733 11.788H79.4213V11.824C79.4213 12.76 79.7393 13.486 80.3753 14.002C81.0233 14.506 81.9233 14.758 83.0753 14.758C84.1313 14.758 84.9173 14.584 85.4333 14.236C86.0453 13.816 86.3513 13.228 86.3513 12.472C86.3513 11.512 85.5653 10.834 83.9933 10.438L80.7893 9.61C79.1093 9.178 78.2693 8.188 78.2693 6.64C78.2693 5.416 78.7313 4.468 79.6553 3.796C80.4593 3.208 81.5213 2.914 82.8413 2.914C84.7133 2.914 86.0513 3.46 86.8553 4.552C87.3233 5.188 87.5573 5.878 87.5573 6.622C87.5573 6.658 87.5573 6.724 87.5573 6.82ZM92.0623 10.546V16H90.4243V3.112H95.7523C97.1083 3.112 98.1283 3.484 98.8123 4.228C99.4123 4.876 99.7123 5.764 99.7123 6.892C99.7123 8.032 99.3463 8.938 98.6143 9.61C97.9423 10.234 97.1083 10.546 96.1123 10.546H92.0623ZM92.0623 9.088H95.5003C96.2803 9.088 96.8923 8.89 97.3363 8.494C97.7803 8.098 98.0023 7.54 98.0023 6.82C98.0023 6.112 97.7803 5.56 97.3363 5.164C96.8923 4.768 96.2803 4.57 95.5003 4.57H92.0623V9.088ZM109.005 12.13H104.037L102.669 16H100.923L105.513 3.112H107.637L112.155 16H110.337L109.005 12.13ZM108.537 10.744L106.557 4.894L104.451 10.744H108.537ZM124.112 7.054H122.42C122.24 6.19 121.928 5.56 121.484 5.164C120.908 4.636 120.068 4.372 118.964 4.372C117.62 4.372 116.582 4.9 115.85 5.956C115.214 6.88 114.896 8.092 114.896 9.592C114.896 11.284 115.322 12.598 116.174 13.534C116.93 14.338 117.902 14.74 119.09 14.74C120.542 14.74 121.544 14.206 122.096 13.138C122.348 12.646 122.546 11.992 122.69 11.176H124.382C123.986 14.524 122.228 16.198 119.108 16.198C117.428 16.198 116.102 15.706 115.13 14.722C113.882 13.462 113.258 11.77 113.258 9.646C113.258 7.582 113.858 5.884 115.058 4.552C116.042 3.46 117.398 2.914 119.126 2.914C121.934 2.914 123.596 4.294 124.112 7.054ZM128.396 10.132V14.542H135.992V16H126.758V3.112H135.686V4.57H128.396V8.674H135.416V10.132H128.396ZM148.553 16H146.825L143.153 5.2V16H141.605V3.112H143.873L147.707 14.326L151.451 3.112H153.737V16H152.171V5.2L148.553 16ZM163.284 16H161.556L157.884 5.2V16H156.336V3.112H158.604L162.438 14.326L166.182 3.112H168.468V16H166.902V5.2L163.284 16ZM181.434 7.054H179.742C179.562 6.19 179.25 5.56 178.806 5.164C178.23 4.636 177.39 4.372 176.286 4.372C174.942 4.372 173.904 4.9 173.172 5.956C172.536 6.88 172.218 8.092 172.218 9.592C172.218 11.284 172.644 12.598 173.496 13.534C174.252 14.338 175.224 14.74 176.412 14.74C177.864 14.74 178.866 14.206 179.418 13.138C179.67 12.646 179.868 11.992 180.012 11.176H181.704C181.308 14.524 179.55 16.198 176.43 16.198C174.75 16.198 173.424 15.706 172.452 14.722C171.204 13.462 170.58 11.77 170.58 9.646C170.58 7.582 171.18 5.884 172.38 4.552C173.364 3.46 174.72 2.914 176.448 2.914C179.256 2.914 180.918 4.294 181.434 7.054Z" fill="white"/>
<path d="M1.0998 23.4764C1.10607 23.4075 1.16247 23.3009 1.269 23.1568C1.4006 22.9813 1.54473 22.8873 1.7014 22.8748C2.42833 22.6053 3.13333 22.6085 3.8164 22.8842C4.29267 23.0722 4.66867 23.3761 4.9444 23.796C5.2264 24.2096 5.33293 24.6702 5.264 25.1778C5.2264 25.4661 5.11987 25.7637 4.9444 26.0708C4.76893 26.3716 4.53393 26.6442 4.2394 26.8886C3.7694 27.2834 3.2242 27.5435 2.6038 27.6688C2.209 27.744 1.81107 27.7597 1.41 27.7158L1.2408 29.7368C1.24707 29.8684 1.15307 30.0188 0.9588 30.188C0.889867 30.2507 0.811533 30.2977 0.7238 30.329C0.642333 30.3666 0.585933 30.3697 0.5546 30.3384C0.529533 30.3133 0.520133 30.2757 0.5264 30.2256L1.0998 23.4764ZM1.7766 23.4388L1.4852 26.9168C2.01787 27.0421 2.52233 27.0609 2.9986 26.9732C3.48113 26.8792 3.84773 26.7257 4.0984 26.5126C4.34907 26.2995 4.5026 25.9925 4.559 25.5914C4.6154 25.1903 4.51513 24.8018 4.2582 24.4258C4.00753 24.0435 3.68793 23.7772 3.2994 23.6268C2.91713 23.4764 2.6038 23.4012 2.3594 23.4012C2.12127 23.4012 1.927 23.4137 1.7766 23.4388ZM6.93096 25.5068C6.93722 25.4379 6.97796 25.3533 7.05316 25.253C7.12836 25.1527 7.20669 25.0775 7.28816 25.0274C7.36962 24.971 7.43856 24.9365 7.49496 24.924C7.60776 24.8989 7.65789 24.9334 7.64536 25.0274L7.59836 25.441C8.08089 25.0337 8.57909 24.8582 9.09296 24.9146C9.18069 24.9271 9.20262 24.9929 9.15876 25.112C9.09609 25.2749 8.99269 25.4034 8.84856 25.4974C8.70442 25.5914 8.60416 25.6353 8.54776 25.629C8.22816 25.5914 7.95556 25.6572 7.72996 25.8264C7.62342 25.9079 7.54822 26.099 7.50436 26.3998L7.14716 29.765C7.14089 29.8402 7.10016 29.9248 7.02496 30.0188C6.94976 30.1191 6.87142 30.1943 6.78996 30.2444C6.70849 30.3008 6.63956 30.3353 6.58316 30.3478C6.47036 30.3729 6.42022 30.3353 6.43276 30.235L6.78056 26.945C6.78056 26.9325 6.78369 26.9074 6.78996 26.8698L6.93096 25.5068ZM10.8257 27.8004C10.8006 28.9597 11.3051 29.5739 12.3391 29.6428C12.5584 29.6616 12.7558 29.6553 12.9313 29.624C13.1569 29.5864 13.2822 29.5425 13.3073 29.4924C13.3574 29.3984 13.4295 29.3075 13.5235 29.2198C13.6238 29.1321 13.7146 29.0757 13.7961 29.0506C13.8776 29.0193 13.934 29.0287 13.9653 29.0788C14.0092 29.1603 13.9496 29.3075 13.7867 29.5206C13.6238 29.7337 13.4546 29.8997 13.2791 30.0188C13.1099 30.1441 12.9438 30.2287 12.7809 30.2726C12.4174 30.3729 12.0884 30.4011 11.7939 30.3572C10.5594 30.2757 10.0048 29.4955 10.1301 28.0166C10.1677 27.5591 10.2366 27.1643 10.3369 26.8322C10.4372 26.4938 10.597 26.1773 10.8163 25.8828C11.3176 25.206 11.9412 24.8833 12.6869 24.9146C13.8713 24.9585 14.3664 25.7449 14.1721 27.274C14.1157 27.5247 13.9904 27.7033 13.7961 27.8098C13.7209 27.8537 13.6394 27.8725 13.5517 27.8662L10.8257 27.8004ZM10.8915 27.0954C10.9354 27.0829 10.9698 27.0766 10.9949 27.0766L13.4953 27.133C13.4765 26.1617 13.0284 25.6603 12.1511 25.629C11.725 25.6102 11.4398 25.7011 11.2957 25.9016C11.1077 26.1523 10.973 26.5502 10.8915 27.0954ZM16.0086 25.5068C16.0148 25.4379 16.0556 25.3533 16.1308 25.253C16.206 25.1527 16.2843 25.0775 16.3658 25.0274C16.4472 24.971 16.5162 24.9365 16.5726 24.924C16.6854 24.8989 16.7355 24.9334 16.723 25.0274L16.6572 25.6478C16.8326 25.4473 17.0457 25.2749 17.2964 25.1308C17.547 24.9867 17.804 24.9146 18.0672 24.9146C18.6813 24.9083 19.0636 25.2154 19.214 25.8358C19.4333 25.5475 19.684 25.3219 19.966 25.159C20.248 24.9961 20.5206 24.9146 20.7838 24.9146C21.6674 24.9021 22.0308 25.6384 21.8742 27.1236L21.6486 29.7556C21.6423 29.8245 21.6016 29.9091 21.5264 30.0094C21.4512 30.1097 21.3728 30.188 21.2914 30.2444C21.2099 30.3008 21.1441 30.3353 21.094 30.3478C20.9812 30.3791 20.9279 30.3447 20.9342 30.2444L21.1598 27.6124C21.3039 26.2839 21.0094 25.6227 20.2762 25.629C20.0944 25.629 19.9597 25.6541 19.872 25.7042C19.6589 25.8295 19.4615 26.1585 19.2798 26.6912C19.2735 26.8291 19.2641 26.9732 19.2516 27.1236L19.026 29.7556C19.0197 29.8245 18.979 29.9091 18.9038 30.0094C18.8286 30.1097 18.7502 30.188 18.6688 30.2444C18.5873 30.3008 18.5215 30.3353 18.4714 30.3478C18.3586 30.3791 18.3053 30.3447 18.3116 30.2444L18.5372 27.6124C18.5497 27.4683 18.556 27.3586 18.556 27.2834C18.556 27.2082 18.5591 27.1581 18.5654 27.133C18.5842 26.1178 18.2489 25.6165 17.5596 25.629C17.3778 25.629 17.2431 25.6541 17.1554 25.7042C16.936 25.8295 16.7324 26.1742 16.5444 26.7382C16.5444 26.7445 16.5444 26.7539 16.5444 26.7664L16.2248 29.765C16.2185 29.8402 16.1778 29.9248 16.1026 30.0188C16.0274 30.1191 15.949 30.1943 15.8676 30.2444C15.7861 30.3008 15.7172 30.3353 15.6608 30.3478C15.548 30.3729 15.4978 30.3353 15.5104 30.235L16.0086 25.5068ZM23.8245 25.5068C23.8308 25.4379 23.8715 25.3533 23.9467 25.253C24.0219 25.1527 24.1003 25.0775 24.1817 25.0274C24.2632 24.971 24.3321 24.9365 24.3885 24.924C24.5013 24.8989 24.5515 24.9334 24.5389 25.0274L24.0407 29.765C24.0345 29.8402 23.9937 29.9248 23.9185 30.0188C23.8433 30.1191 23.765 30.1943 23.6835 30.2444C23.6021 30.3008 23.5331 30.3353 23.4767 30.3478C23.3639 30.3729 23.3138 30.3353 23.3263 30.235L23.8245 25.5068ZM23.8715 23.89C23.8778 23.8211 23.9154 23.7365 23.9843 23.6362C24.0595 23.5359 24.1379 23.4576 24.2193 23.4012C24.3008 23.3448 24.3697 23.3103 24.4261 23.2978C24.5389 23.2665 24.5922 23.3009 24.5859 23.4012L24.5389 24.0592C24.5327 24.1281 24.4919 24.2127 24.4167 24.313C24.3478 24.4133 24.2726 24.4916 24.1911 24.548C24.1097 24.6044 24.0407 24.6389 23.9843 24.6514C23.8715 24.6827 23.8183 24.6483 23.8245 24.548L23.8715 23.89ZM29.3182 29.765C29.3119 29.8339 29.2712 29.9185 29.196 30.0188C29.1208 30.1191 29.0424 30.1943 28.961 30.2444C28.8795 30.3008 28.8106 30.3353 28.7542 30.3478C28.6414 30.3729 28.5912 30.3353 28.6038 30.235L28.6696 29.624C28.4941 29.8245 28.281 29.9969 28.0304 30.141C27.7797 30.2851 27.5228 30.3572 27.2596 30.3572C26.188 30.3697 25.7305 29.6303 25.8872 28.1388L26.1128 25.5162C26.119 25.4473 26.1598 25.3627 26.235 25.2624C26.3102 25.1559 26.3885 25.0775 26.47 25.0274C26.5514 24.971 26.6172 24.9365 26.6674 24.924C26.7802 24.8927 26.8334 24.9271 26.8272 25.0274L26.6016 27.6594C26.4574 28.9879 26.846 29.6491 27.7672 29.6428C27.9489 29.6428 28.0836 29.6177 28.1714 29.5676C28.3907 29.4423 28.5944 29.0976 28.7824 28.5336C28.7824 28.5273 28.7824 28.5179 28.7824 28.5054L29.102 25.5068C29.1082 25.4316 29.149 25.347 29.2242 25.253C29.2994 25.1527 29.3777 25.0775 29.4592 25.0274C29.5406 24.971 29.6096 24.9365 29.666 24.924C29.7788 24.8989 29.8289 24.9334 29.8164 25.0274L29.3182 29.765ZM31.5252 25.5068C31.5314 25.4379 31.5722 25.3533 31.6474 25.253C31.7226 25.1527 31.8009 25.0775 31.8824 25.0274C31.9638 24.971 32.0328 24.9365 32.0892 24.924C32.202 24.8989 32.2521 24.9334 32.2396 25.0274L32.1738 25.6478C32.3492 25.4473 32.5623 25.2749 32.813 25.1308C33.0636 24.9867 33.3206 24.9146 33.5838 24.9146C34.1979 24.9083 34.5802 25.2154 34.7306 25.8358C34.9499 25.5475 35.2006 25.3219 35.4826 25.159C35.7646 24.9961 36.0372 24.9146 36.3004 24.9146C37.184 24.9021 37.5474 25.6384 37.3908 27.1236L37.1652 29.7556C37.1589 29.8245 37.1182 29.9091 37.043 30.0094C36.9678 30.1097 36.8894 30.188 36.808 30.2444C36.7265 30.3008 36.6607 30.3353 36.6106 30.3478C36.4978 30.3791 36.4445 30.3447 36.4508 30.2444L36.6764 27.6124C36.8205 26.2839 36.526 25.6227 35.7928 25.629C35.611 25.629 35.4763 25.6541 35.3886 25.7042C35.1755 25.8295 34.9781 26.1585 34.7964 26.6912C34.7901 26.8291 34.7807 26.9732 34.7682 27.1236L34.5426 29.7556C34.5363 29.8245 34.4956 29.9091 34.4204 30.0094C34.3452 30.1097 34.2668 30.188 34.1854 30.2444C34.1039 30.3008 34.0381 30.3353 33.988 30.3478C33.8752 30.3791 33.8219 30.3447 33.8282 30.2444L34.0538 27.6124C34.0663 27.4683 34.0726 27.3586 34.0726 27.2834C34.0726 27.2082 34.0757 27.1581 34.082 27.133C34.1008 26.1178 33.7655 25.6165 33.0762 25.629C32.8944 25.629 32.7597 25.6541 32.672 25.7042C32.4526 25.8295 32.249 26.1742 32.061 26.7382C32.061 26.7445 32.061 26.7539 32.061 26.7664L31.7414 29.765C31.7351 29.8402 31.6944 29.9248 31.6192 30.0188C31.544 30.1191 31.4656 30.1943 31.3842 30.2444C31.3027 30.3008 31.2338 30.3353 31.1774 30.3478C31.0646 30.3729 31.0144 30.3353 31.027 30.235L31.5252 25.5068ZM41.3338 30.2444L41.9918 23.4764C42.0294 23.2383 42.1453 23.0628 42.3396 22.95C42.4148 22.9061 42.4994 22.8811 42.5934 22.8748C45.4384 22.7056 46.8234 23.8681 46.7482 26.3622C46.7168 27.3022 46.4536 28.1012 45.9586 28.7592C45.4698 29.4109 44.8494 29.8559 44.0974 30.094C43.3454 30.3321 42.4524 30.4199 41.4184 30.3572C41.3557 30.3572 41.3275 30.3196 41.3338 30.2444ZM42.0576 29.6522C42.9725 29.7023 43.7214 29.6334 44.3042 29.4454C44.887 29.2511 45.288 29.0036 45.5074 28.7028C45.827 28.2704 46.0024 27.6594 46.0338 26.8698C46.0651 25.7794 45.8019 24.9616 45.2442 24.4164C44.6864 23.8649 43.8216 23.5829 42.6498 23.5704L42.0576 29.6522ZM48.4738 25.5068C48.4801 25.4379 48.5208 25.3533 48.596 25.253C48.6712 25.1527 48.7495 25.0775 48.831 25.0274C48.9125 24.971 48.9814 24.9365 49.0378 24.924C49.1506 24.8989 49.2007 24.9334 49.1882 25.0274L48.69 29.765C48.6837 29.8402 48.643 29.9248 48.5678 30.0188C48.4926 30.1191 48.4143 30.1943 48.3328 30.2444C48.2513 30.3008 48.1824 30.3353 48.126 30.3478C48.0132 30.3729 47.9631 30.3353 47.9756 30.235L48.4738 25.5068ZM48.5208 23.89C48.5271 23.8211 48.5647 23.7365 48.6336 23.6362C48.7088 23.5359 48.7871 23.4576 48.8686 23.4012C48.9501 23.3448 49.019 23.3103 49.0754 23.2978C49.1882 23.2665 49.2415 23.3009 49.2352 23.4012L49.1882 24.0592C49.1819 24.1281 49.1412 24.2127 49.066 24.313C48.9971 24.4133 48.9219 24.4916 48.8404 24.548C48.7589 24.6044 48.69 24.6389 48.6336 24.6514C48.5208 24.6827 48.4675 24.6483 48.4738 24.548L48.5208 23.89ZM54.1179 25.2154C54.2432 25.0587 54.3529 24.9679 54.4469 24.9428C54.6035 24.8989 54.6787 24.924 54.6725 25.018C54.5471 27.0547 54.4531 28.2923 54.3905 28.731C54.3403 29.2511 54.2589 29.6992 54.1461 30.0752C54.0333 30.4512 53.8484 30.8115 53.5915 31.1562C53.3408 31.5071 53.0463 31.7672 52.7079 31.9364C52.3695 32.1056 52.0279 32.1871 51.6833 32.1808C50.9751 32.1745 50.4895 31.9552 50.2263 31.5228C50.2012 31.4789 50.2106 31.4069 50.2545 31.3066C50.3046 31.2126 50.3767 31.1217 50.4707 31.034C50.5647 30.9525 50.6555 30.8961 50.7433 30.8648C50.831 30.8335 50.8905 30.8397 50.9219 30.8836C51.1475 31.2659 51.5767 31.4601 52.2097 31.4664C52.6609 31.4727 52.9711 31.3536 53.1403 31.1092C53.3784 30.7771 53.5476 30.2413 53.6479 29.5018C53.322 29.9029 52.9899 30.1629 52.6515 30.282C52.3193 30.4073 52.0091 30.4293 51.7209 30.3478C50.8247 30.0971 50.5553 29.0631 50.9125 27.2458C51.0315 26.6442 51.2415 26.1491 51.5423 25.7606C52.0561 25.0963 52.6859 24.8143 53.4317 24.9146C53.7137 24.9522 53.9424 25.0525 54.1179 25.2154ZM53.7513 28.449C53.7951 27.9665 53.8139 27.7252 53.8077 27.7252C53.7826 27.7064 53.7732 27.6719 53.7795 27.6218C53.9424 26.3935 53.6385 25.7293 52.8677 25.629C52.6797 25.6039 52.5167 25.6071 52.3789 25.6384C52.1846 25.676 52.0561 25.7355 51.9935 25.817C51.8368 26.0175 51.7083 26.3747 51.6081 26.8886C51.5078 27.4025 51.4639 27.8568 51.4765 28.2516C51.5141 29.0287 51.7898 29.4893 52.3037 29.6334C52.6985 29.7462 53.0024 29.6741 53.2155 29.4172C53.3784 29.2229 53.5413 28.9315 53.7043 28.543C53.7168 28.5117 53.7325 28.4803 53.7513 28.449ZM56.1653 25.5068C56.1716 25.4379 56.2123 25.3533 56.2875 25.253C56.3627 25.1527 56.441 25.0775 56.5225 25.0274C56.604 24.971 56.6729 24.9365 56.7293 24.924C56.8421 24.8989 56.8922 24.9334 56.8797 25.0274L56.3815 29.765C56.3752 29.8402 56.3345 29.9248 56.2593 30.0188C56.1841 30.1191 56.1058 30.1943 56.0243 30.2444C55.9428 30.3008 55.8739 30.3353 55.8175 30.3478C55.7047 30.3729 55.6546 30.3353 55.6671 30.235L56.1653 25.5068ZM56.2123 23.89C56.2186 23.8211 56.2562 23.7365 56.3251 23.6362C56.4003 23.5359 56.4786 23.4576 56.5601 23.4012C56.6416 23.3448 56.7105 23.3103 56.7669 23.2978C56.8797 23.2665 56.933 23.3009 56.9267 23.4012L56.8797 24.0592C56.8734 24.1281 56.8327 24.2127 56.7575 24.313C56.6886 24.4133 56.6134 24.4916 56.5319 24.548C56.4504 24.6044 56.3815 24.6389 56.3251 24.6514C56.2123 24.6827 56.159 24.6483 56.1653 24.548L56.2123 23.89ZM60.5873 29.2386C60.6688 29.2198 60.7158 29.2417 60.7283 29.3044C60.7409 29.3608 60.7158 29.4391 60.6531 29.5394C60.5905 29.6334 60.4683 29.7556 60.2865 29.906C60.1048 30.0501 59.9043 30.1692 59.6849 30.2632C59.2525 30.4387 58.9298 30.3948 58.7167 30.1316C58.5162 29.8997 58.4629 29.4579 58.5569 28.8062L58.8013 25.9768H58.0869C57.9929 25.9768 57.9679 25.9173 58.0117 25.7982C58.0619 25.6415 58.1559 25.5131 58.2937 25.4128C58.4379 25.3063 58.5444 25.253 58.6133 25.253H58.8671L59.0081 23.6456C59.0144 23.5767 59.0551 23.4921 59.1303 23.3918C59.2055 23.2915 59.2839 23.2132 59.3653 23.1568C59.4468 23.1004 59.5126 23.0659 59.5627 23.0534C59.6755 23.0221 59.7288 23.0565 59.7225 23.1568L59.5439 25.253C59.8197 25.253 60.0923 25.253 60.3617 25.253C60.4557 25.253 60.4808 25.3157 60.4369 25.441C60.3868 25.5977 60.2897 25.7261 60.1455 25.8264C60.0077 25.9267 59.9043 25.9768 59.8353 25.9768H59.4781L59.2713 28.3268C59.2713 28.3331 59.2713 28.3393 59.2713 28.3456C59.1836 28.9096 59.2243 29.2856 59.3935 29.4736C59.5502 29.6679 59.7413 29.7149 59.9669 29.6146C60.0735 29.5645 60.1831 29.4924 60.2959 29.3984C60.415 29.3044 60.5121 29.2511 60.5873 29.2386ZM66.1908 29.3608C66.2723 29.3483 66.3193 29.3733 66.3318 29.436C66.3444 29.4924 66.3162 29.5707 66.2472 29.671C66.1846 29.7713 66.0749 29.8841 65.9182 30.0094C65.7616 30.1347 65.5955 30.2319 65.42 30.3008C65.0754 30.4387 64.8623 30.376 64.7808 30.1128C64.7432 30.0063 64.7276 29.8089 64.7338 29.5206C64.408 29.9154 64.079 30.1723 63.7468 30.2914C63.4147 30.4105 63.1045 30.4293 62.8162 30.3478C61.9201 30.0971 61.6506 29.0631 62.0078 27.2458C62.1269 26.6442 62.3368 26.1491 62.6376 25.7606C63.1515 25.0963 63.7813 24.8143 64.527 24.9146C64.8404 24.9522 65.0848 25.0681 65.2602 25.2624C65.4044 25.0681 65.5548 24.9522 65.7114 24.9146C65.7616 24.9021 65.7992 24.9083 65.8242 24.9334C65.8556 24.9522 65.8681 24.9867 65.8618 25.0368C65.4984 27.6876 65.3699 29.1791 65.4764 29.5112C65.5266 29.6616 65.608 29.7086 65.7208 29.6522C65.771 29.6271 65.843 29.577 65.937 29.5018C66.031 29.4203 66.1156 29.3733 66.1908 29.3608ZM64.7808 28.5806C64.8247 28.0793 64.856 27.7597 64.8748 27.6218C65.0378 26.3935 64.7338 25.7293 63.963 25.629C63.775 25.6039 63.6121 25.6071 63.4742 25.6384C63.2862 25.676 63.1578 25.7355 63.0888 25.817C62.9322 26.0175 62.8037 26.3747 62.7034 26.8886C62.6032 27.4025 62.5593 27.8568 62.5718 28.2516C62.6094 29.0287 62.8852 29.4893 63.399 29.6334C63.7938 29.7462 64.0978 29.6741 64.3108 29.4172C64.4675 29.2292 64.6242 28.9503 64.7808 28.5806ZM68.1331 22.6868C68.1394 22.6116 68.1801 22.5239 68.2553 22.4236C68.3305 22.3233 68.4088 22.2481 68.4903 22.198C68.5718 22.1416 68.6376 22.1071 68.6877 22.0946C68.8005 22.0633 68.8538 22.0977 68.8475 22.198L68.1519 29.7556C68.1456 29.8245 68.1049 29.9091 68.0297 30.0094C67.9545 30.1159 67.8762 30.1943 67.7947 30.2444C67.7132 30.3008 67.6474 30.3353 67.5973 30.3478C67.4845 30.3791 67.4312 30.3447 67.4375 30.2444L68.1331 22.6868ZM76.2411 29.154C75.3638 28.2203 74.6964 27.4056 74.2389 26.71C73.8441 26.8165 73.5245 26.9575 73.2801 27.133C73.0357 27.3085 72.9041 27.6155 72.8853 28.0542C72.8415 29.1885 73.5183 29.718 74.9157 29.6428C75.486 29.6115 75.9278 29.4485 76.2411 29.154ZM74.8499 25.958C75.1758 25.864 75.4265 25.7731 75.6019 25.6854C75.7837 25.5977 75.9121 25.5162 75.9873 25.441C75.9999 25.4222 76.0061 25.4034 76.0061 25.3846C76.1628 24.8582 76.1565 24.4759 75.9873 24.2378C75.8181 23.9997 75.4735 23.9025 74.9533 23.9464C74.6463 23.9715 74.4113 24.0279 74.2483 24.1156C74.1982 24.2597 74.2139 24.4885 74.2953 24.8018C74.3893 25.1402 74.5742 25.5256 74.8499 25.958ZM76.7675 28.3456C76.9555 27.9257 77.0965 27.4181 77.1905 26.8228C77.2031 26.7476 77.2469 26.6599 77.3221 26.5596C77.4036 26.4593 77.4913 26.381 77.5853 26.3246C77.6856 26.2619 77.7671 26.2369 77.8297 26.2494C77.8924 26.2557 77.9175 26.2964 77.9049 26.3716C77.7545 27.3053 77.4851 28.0793 77.0965 28.6934C77.3973 29.0067 77.7138 29.3326 78.0459 29.671C78.0835 29.7086 78.0835 29.7744 78.0459 29.8684C78.0083 29.9561 77.9425 30.0439 77.8485 30.1316C77.7608 30.2256 77.6699 30.2914 77.5759 30.329C77.4819 30.3666 77.4193 30.3666 77.3879 30.329C77.0746 30.0157 76.7769 29.7149 76.4949 29.4266C75.8996 30.0031 75.2103 30.3133 74.4269 30.3572C72.8791 30.4449 72.1271 29.8465 72.1709 28.5618C72.1835 28.2171 72.2837 27.8725 72.4717 27.5278C72.7663 26.9889 73.2613 26.5627 73.9569 26.2494C73.7125 25.817 73.5653 25.4849 73.5151 25.253C73.465 25.0149 73.4587 24.8112 73.4963 24.642C73.5402 24.4728 73.6185 24.3036 73.7313 24.1344C73.9507 23.8148 74.2045 23.5923 74.4927 23.467C74.781 23.3417 75.0975 23.2633 75.4421 23.232C76.0437 23.1819 76.4511 23.3072 76.6641 23.608C76.8835 23.9025 76.896 24.3694 76.7017 25.0086C76.6077 25.3031 76.4135 25.5757 76.1189 25.8264C75.8244 26.0771 75.5048 26.2745 75.1601 26.4186C75.5675 26.9826 76.1033 27.6249 76.7675 28.3456ZM87.3755 24.8958C87.3692 24.971 87.3285 25.0587 87.2533 25.159C87.1781 25.2593 87.0998 25.3376 87.0183 25.394C86.9368 25.4441 86.871 25.4755 86.8209 25.488C86.7081 25.5193 86.6548 25.4849 86.6611 25.3846C86.6862 25.1214 86.6423 24.8645 86.5295 24.6138C86.423 24.3569 86.26 24.1438 86.0407 23.9746C85.8214 23.8054 85.577 23.6957 85.3075 23.6456C85.0443 23.5955 84.7874 23.6049 84.5367 23.6738C83.7534 23.8869 83.2082 24.6545 82.9011 25.9768C82.6692 26.9732 82.7319 27.8035 83.0891 28.4678C83.2896 28.8438 83.5685 29.1383 83.9257 29.3514C84.2829 29.5582 84.662 29.6553 85.0631 29.6428C85.4704 29.6303 85.7994 29.5363 86.0501 29.3608C86.3008 29.1853 86.4794 28.9535 86.5859 28.6652C86.6235 28.5775 86.6862 28.4866 86.7739 28.3926C86.8679 28.2986 86.9588 28.2328 87.0465 28.1952C87.1405 28.1513 87.2063 28.1482 87.2439 28.1858C87.2878 28.2171 87.294 28.2767 87.2627 28.3644C87.1562 28.6276 86.9995 28.8908 86.7927 29.154C86.5922 29.4109 86.3572 29.6334 86.0877 29.8214C85.6114 30.1598 85.1226 30.3353 84.6213 30.3478C84.1262 30.3666 83.6844 30.2632 83.2959 30.0376C82.9136 29.812 82.616 29.5018 82.4029 29.107C82.0144 28.3801 81.9486 27.4745 82.2055 26.3904C82.4938 25.1433 83.0515 24.1908 83.8787 23.5328C84.5367 23.0127 85.201 22.8121 85.8715 22.9312C86.1786 22.9876 86.4512 23.1098 86.6893 23.2978C86.9274 23.4858 87.1092 23.7208 87.2345 24.0028C87.3598 24.2848 87.4068 24.5825 87.3755 24.8958ZM91.6133 24.9146C92.7663 25.0149 93.2301 25.958 93.0045 27.744C92.9105 28.4584 92.7005 29.0318 92.3747 29.4642C91.8733 30.1285 91.2498 30.4261 90.5041 30.3572C89.2382 30.2444 88.7024 29.4297 88.8967 27.9132C88.9531 27.4808 89.0345 27.1017 89.1411 26.7758C89.2539 26.4499 89.4199 26.146 89.6393 25.864C90.1719 25.1621 90.8299 24.8457 91.6133 24.9146ZM91.0681 25.629C90.5918 25.5851 90.2691 25.676 90.0999 25.9016C90.0059 26.0207 89.9119 26.2181 89.8179 26.4938C89.7239 26.7633 89.6549 27.0797 89.6111 27.4432C89.4356 28.8093 89.915 29.5425 91.0493 29.6428C91.4817 29.6804 91.7668 29.6083 91.9047 29.4266C91.9736 29.3326 92.0457 29.1791 92.1209 28.966C92.1961 28.7467 92.2525 28.496 92.2901 28.214C92.5031 26.5784 92.0958 25.7167 91.0681 25.629ZM94.8665 25.5068C94.8728 25.4379 94.9135 25.3533 94.9887 25.253C95.0639 25.1527 95.1422 25.0775 95.2237 25.0274C95.3052 24.971 95.3741 24.9365 95.4305 24.924C95.5433 24.8989 95.5934 24.9334 95.5809 25.0274L95.5151 25.6478C95.6906 25.4473 95.9036 25.2749 96.1543 25.1308C96.405 24.9867 96.6619 24.9146 96.9251 24.9146C97.5392 24.9083 97.9215 25.2154 98.0719 25.8358C98.2912 25.5475 98.5419 25.3219 98.8239 25.159C99.1059 24.9961 99.3785 24.9146 99.6417 24.9146C100.525 24.9021 100.889 25.6384 100.732 27.1236L100.506 29.7556C100.5 29.8245 100.459 29.9091 100.384 30.0094C100.309 30.1097 100.231 30.188 100.149 30.2444C100.068 30.3008 100.002 30.3353 99.9519 30.3478C99.8391 30.3791 99.7858 30.3447 99.7921 30.2444L100.018 27.6124C100.162 26.2839 99.8673 25.6227 99.1341 25.629C98.9524 25.629 98.8176 25.6541 98.7299 25.7042C98.5168 25.8295 98.3194 26.1585 98.1377 26.6912C98.1314 26.8291 98.122 26.9732 98.1095 27.1236L97.8839 29.7556C97.8776 29.8245 97.8369 29.9091 97.7617 30.0094C97.6865 30.1097 97.6082 30.188 97.5267 30.2444C97.4452 30.3008 97.3794 30.3353 97.3293 30.3478C97.2165 30.3791 97.1632 30.3447 97.1695 30.2444L97.3951 27.6124C97.4076 27.4683 97.4139 27.3586 97.4139 27.2834C97.4139 27.2082 97.417 27.1581 97.4233 27.133C97.4421 26.1178 97.1068 25.6165 96.4175 25.629C96.2358 25.629 96.101 25.6541 96.0133 25.7042C95.794 25.8295 95.5903 26.1742 95.4023 26.7382C95.4023 26.7445 95.4023 26.7539 95.4023 26.7664L95.0827 29.765C95.0764 29.8402 95.0357 29.9248 94.9605 30.0188C94.8853 30.1191 94.807 30.1943 94.7255 30.2444C94.644 30.3008 94.5751 30.3353 94.5187 30.3478C94.4059 30.3729 94.3558 30.3353 94.3683 30.235L94.8665 25.5068ZM102.682 25.5068C102.689 25.4379 102.729 25.3533 102.805 25.253C102.88 25.1527 102.958 25.0775 103.04 25.0274C103.121 24.971 103.19 24.9365 103.246 24.924C103.359 24.8989 103.409 24.9334 103.397 25.0274L103.331 25.6478C103.507 25.4473 103.72 25.2749 103.97 25.1308C104.221 24.9867 104.478 24.9146 104.741 24.9146C105.355 24.9083 105.737 25.2154 105.888 25.8358C106.107 25.5475 106.358 25.3219 106.64 25.159C106.922 24.9961 107.194 24.9146 107.458 24.9146C108.341 24.9021 108.705 25.6384 108.548 27.1236L108.322 29.7556C108.316 29.8245 108.275 29.9091 108.2 30.0094C108.125 30.1097 108.047 30.188 107.965 30.2444C107.884 30.3008 107.818 30.3353 107.768 30.3478C107.655 30.3791 107.602 30.3447 107.608 30.2444L107.834 27.6124C107.978 26.2839 107.683 25.6227 106.95 25.629C106.768 25.629 106.634 25.6541 106.546 25.7042C106.333 25.8295 106.135 26.1585 105.954 26.6912C105.947 26.8291 105.938 26.9732 105.925 27.1236L105.7 29.7556C105.694 29.8245 105.653 29.9091 105.578 30.0094C105.502 30.1097 105.424 30.188 105.343 30.2444C105.261 30.3008 105.195 30.3353 105.145 30.3478C105.032 30.3791 104.979 30.3447 104.985 30.2444L105.211 27.6124C105.224 27.4683 105.23 27.3586 105.23 27.2834C105.23 27.2082 105.233 27.1581 105.239 27.133C105.258 26.1178 104.923 25.6165 104.233 25.629C104.052 25.629 103.917 25.6541 103.829 25.7042C103.61 25.8295 103.406 26.1742 103.218 26.7382C103.218 26.7445 103.218 26.7539 103.218 26.7664L102.899 29.765C102.892 29.8402 102.852 29.9248 102.776 30.0188C102.701 30.1191 102.623 30.1943 102.541 30.2444C102.46 30.3008 102.391 30.3353 102.335 30.3478C102.222 30.3729 102.172 30.3353 102.184 30.235L102.682 25.5068ZM110.827 27.8004C110.802 28.9597 111.307 29.5739 112.341 29.6428C112.56 29.6616 112.758 29.6553 112.933 29.624C113.159 29.5864 113.284 29.5425 113.309 29.4924C113.359 29.3984 113.431 29.3075 113.525 29.2198C113.625 29.1321 113.716 29.0757 113.798 29.0506C113.879 29.0193 113.936 29.0287 113.967 29.0788C114.011 29.1603 113.951 29.3075 113.788 29.5206C113.625 29.7337 113.456 29.8997 113.281 30.0188C113.112 30.1441 112.946 30.2287 112.783 30.2726C112.419 30.3729 112.09 30.4011 111.796 30.3572C110.561 30.2757 110.006 29.4955 110.132 28.0166C110.169 27.5591 110.238 27.1643 110.339 26.8322C110.439 26.4938 110.599 26.1773 110.818 25.8828C111.319 25.206 111.943 24.8833 112.689 24.9146C113.873 24.9585 114.368 25.7449 114.174 27.274C114.117 27.5247 113.992 27.7033 113.798 27.8098C113.723 27.8537 113.641 27.8725 113.553 27.8662L110.827 27.8004ZM110.893 27.0954C110.937 27.0829 110.972 27.0766 110.997 27.0766L113.497 27.133C113.478 26.1617 113.03 25.6603 112.153 25.629C111.727 25.6102 111.442 25.7011 111.297 25.9016C111.109 26.1523 110.975 26.5502 110.893 27.0954ZM116.01 25.5068C116.017 25.4379 116.057 25.3533 116.132 25.253C116.208 25.1527 116.286 25.0775 116.367 25.0274C116.449 24.971 116.518 24.9365 116.574 24.924C116.687 24.8989 116.737 24.9334 116.725 25.0274L116.678 25.441C117.16 25.0337 117.658 24.8582 118.172 24.9146C118.26 24.9271 118.282 24.9929 118.238 25.112C118.175 25.2749 118.072 25.4034 117.928 25.4974C117.784 25.5914 117.683 25.6353 117.627 25.629C117.307 25.5914 117.035 25.6572 116.809 25.8264C116.703 25.9079 116.628 26.099 116.584 26.3998L116.226 29.765C116.22 29.8402 116.179 29.9248 116.104 30.0188C116.029 30.1191 115.951 30.1943 115.869 30.2444C115.788 30.3008 115.719 30.3353 115.662 30.3478C115.55 30.3729 115.5 30.3353 115.512 30.235L115.86 26.945C115.86 26.9325 115.863 26.9074 115.869 26.8698L116.01 25.5068ZM122.396 29.1822C122.478 29.0819 122.566 29.0005 122.66 28.9378C122.76 28.8751 122.838 28.8501 122.895 28.8626C122.957 28.8751 122.982 28.919 122.97 28.9942C122.926 29.2386 122.832 29.4579 122.688 29.6522C122.544 29.8402 122.393 29.9875 122.237 30.094C122.086 30.2005 121.942 30.2726 121.804 30.3102C121.491 30.3854 121.225 30.4011 121.005 30.3572C119.551 30.2131 118.959 29.3702 119.229 27.8286C119.467 26.4938 119.981 25.6008 120.77 25.1496C121.077 24.9741 121.375 24.8801 121.663 24.8676C122.672 24.83 123.195 25.3094 123.233 26.3058C123.233 26.3685 123.199 26.4499 123.13 26.5502C123.067 26.6505 122.995 26.7319 122.913 26.7946C122.832 26.851 122.763 26.8886 122.707 26.9074C122.588 26.9513 122.525 26.9262 122.519 26.8322C122.481 25.9674 122.027 25.5538 121.156 25.5914C120.88 25.6039 120.686 25.6603 120.573 25.7606C120.297 26.0175 120.09 26.5251 119.952 27.2834C119.821 28.0354 119.887 28.5994 120.15 28.9754C120.419 29.3514 120.886 29.5739 121.55 29.6428C121.832 29.6679 122.055 29.6522 122.218 29.5958C122.237 29.5519 122.249 29.4955 122.255 29.4266C122.268 29.3577 122.315 29.2762 122.396 29.1822ZM125.325 27.8004C125.3 28.9597 125.804 29.5739 126.838 29.6428C127.058 29.6616 127.255 29.6553 127.431 29.624C127.656 29.5864 127.782 29.5425 127.807 29.4924C127.857 29.3984 127.929 29.3075 128.023 29.2198C128.123 29.1321 128.214 29.0757 128.295 29.0506C128.377 29.0193 128.433 29.0287 128.465 29.0788C128.509 29.1603 128.449 29.3075 128.286 29.5206C128.123 29.7337 127.954 29.8997 127.778 30.0188C127.609 30.1441 127.443 30.2287 127.28 30.2726C126.917 30.3729 126.588 30.4011 126.293 30.3572C125.059 30.2757 124.504 29.4955 124.629 28.0166C124.667 27.5591 124.736 27.1643 124.836 26.8322C124.937 26.4938 125.096 26.1773 125.316 25.8828C125.817 25.206 126.441 24.8833 127.186 24.9146C128.371 24.9585 128.866 25.7449 128.671 27.274C128.615 27.5247 128.49 27.7033 128.295 27.8098C128.22 27.8537 128.139 27.8725 128.051 27.8662L125.325 27.8004ZM125.391 27.0954C125.435 27.0829 125.469 27.0766 125.494 27.0766L127.995 27.133C127.976 26.1617 127.528 25.6603 126.65 25.629C126.224 25.6102 125.939 25.7011 125.795 25.9016C125.607 26.1523 125.472 26.5502 125.391 27.0954ZM137.483 22.8748C137.545 22.8748 137.577 22.9061 137.577 22.9688C137.577 23.0377 137.539 23.1223 137.464 23.2226C137.395 23.3229 137.31 23.4106 137.21 23.4858C137.11 23.5547 137.025 23.5892 136.956 23.5892H133.788L133.563 26.2212C134.628 26.2212 135.697 26.2212 136.768 26.2212C136.862 26.2212 136.887 26.2807 136.843 26.3998C136.793 26.5565 136.696 26.6849 136.552 26.7852C136.414 26.8855 136.311 26.9356 136.242 26.9356C135.327 26.9356 134.412 26.9356 133.497 26.9356L133.271 29.6428C134.475 29.6428 135.681 29.6428 136.89 29.6428C136.984 29.6428 137.009 29.7023 136.966 29.8214C136.915 29.9781 136.818 30.1065 136.674 30.2068C136.536 30.3071 136.433 30.3572 136.364 30.3572H132.67C132.626 30.3635 132.591 30.3541 132.566 30.329C132.548 30.3102 132.541 30.2757 132.548 30.2256L133.121 23.4764C133.127 23.4075 133.168 23.3197 133.243 23.2132C133.381 23.0315 133.525 22.9218 133.676 22.8842C133.707 22.8779 133.729 22.8748 133.741 22.8748C133.754 22.8748 133.766 22.8748 133.779 22.8748H137.483ZM141.855 29.1822C141.937 29.0819 142.024 29.0005 142.118 28.9378C142.219 28.8751 142.297 28.8501 142.353 28.8626C142.416 28.8751 142.441 28.919 142.429 28.9942C142.385 29.2386 142.291 29.4579 142.147 29.6522C142.002 29.8402 141.852 29.9875 141.695 30.094C141.545 30.2005 141.401 30.2726 141.263 30.3102C140.95 30.3854 140.683 30.4011 140.464 30.3572C139.01 30.2131 138.418 29.3702 138.687 27.8286C138.926 26.4938 139.439 25.6008 140.229 25.1496C140.536 24.9741 140.834 24.8801 141.122 24.8676C142.131 24.83 142.654 25.3094 142.692 26.3058C142.692 26.3685 142.657 26.4499 142.588 26.5502C142.526 26.6505 142.454 26.7319 142.372 26.7946C142.291 26.851 142.222 26.8886 142.165 26.9074C142.046 26.9513 141.984 26.9262 141.977 26.8322C141.94 25.9674 141.485 25.5538 140.614 25.5914C140.339 25.6039 140.144 25.6603 140.032 25.7606C139.756 26.0175 139.549 26.5251 139.411 27.2834C139.28 28.0354 139.345 28.5994 139.609 28.9754C139.878 29.3514 140.345 29.5739 141.009 29.6428C141.291 29.6679 141.514 29.6522 141.677 29.5958C141.695 29.5519 141.708 29.4955 141.714 29.4266C141.727 29.3577 141.774 29.2762 141.855 29.1822ZM146.824 24.9146C147.977 25.0149 148.44 25.958 148.215 27.744C148.121 28.4584 147.911 29.0318 147.585 29.4642C147.084 30.1285 146.46 30.4261 145.714 30.3572C144.449 30.2444 143.913 29.4297 144.107 27.9132C144.163 27.4808 144.245 27.1017 144.351 26.7758C144.464 26.4499 144.63 26.146 144.85 25.864C145.382 25.1621 146.04 24.8457 146.824 24.9146ZM146.278 25.629C145.802 25.5851 145.479 25.676 145.31 25.9016C145.216 26.0207 145.122 26.2181 145.028 26.4938C144.934 26.7633 144.865 27.0797 144.821 27.4432C144.646 28.8093 145.125 29.5425 146.26 29.6428C146.692 29.6804 146.977 29.6083 147.115 29.4266C147.184 29.3326 147.256 29.1791 147.331 28.966C147.406 28.7467 147.463 28.496 147.5 28.214C147.713 26.5784 147.306 25.7167 146.278 25.629ZM153.433 26.3528C153.382 26.4468 153.307 26.5377 153.207 26.6254C153.113 26.7069 153.025 26.757 152.944 26.7758C152.862 26.7946 152.812 26.7789 152.793 26.7288C152.687 26.4405 152.515 26.1961 152.276 25.9956C152.045 25.7888 151.8 25.6666 151.543 25.629C151.286 25.5914 151.086 25.6133 150.942 25.6948C150.816 25.958 150.851 26.2369 151.045 26.5314C151.214 26.7883 151.553 27.0171 152.06 27.2176C152.405 27.3555 152.634 27.4557 152.746 27.5184C153.248 27.8255 153.492 28.2203 153.48 28.7028C153.467 29.0851 153.285 29.4517 152.934 29.8026C152.295 30.4355 151.571 30.5546 150.763 30.1598C150.306 29.9342 149.93 29.5864 149.635 29.1164C149.61 29.0725 149.619 29.0036 149.663 28.9096C149.713 28.8156 149.785 28.7247 149.879 28.637C149.973 28.5493 150.064 28.4897 150.152 28.4584C150.24 28.4271 150.296 28.4333 150.321 28.4772C150.66 29.0099 151.092 29.3702 151.618 29.5582C151.957 29.6773 152.261 29.6929 152.53 29.6052C152.618 29.5739 152.671 29.5457 152.69 29.5206C152.771 29.3827 152.787 29.2041 152.737 28.9848C152.649 28.5837 152.301 28.261 151.694 28.0166C151.669 28.0041 151.596 27.9759 151.477 27.932C151.139 27.8004 150.913 27.6907 150.801 27.603C150.23 27.1894 150.042 26.6943 150.237 26.1178C150.312 25.8859 150.437 25.6791 150.613 25.4974C151.058 25.0337 151.54 24.8394 152.06 24.9146C152.386 24.9585 152.677 25.0932 152.934 25.3188C153.191 25.5381 153.376 25.8076 153.489 26.1272C153.508 26.1773 153.489 26.2525 153.433 26.3528ZM158.516 25.5162C158.522 25.4473 158.559 25.3627 158.628 25.2624C158.704 25.1621 158.782 25.0838 158.863 25.0274C158.945 24.971 159.011 24.9365 159.061 24.924C159.18 24.8927 159.236 24.924 159.23 25.018C159.105 27.0547 159.011 28.2923 158.948 28.731C158.898 29.2511 158.816 29.6992 158.704 30.0752C158.591 30.4512 158.406 30.8115 158.149 31.1562C157.898 31.5071 157.604 31.7672 157.265 31.9364C156.927 32.1056 156.585 32.1871 156.241 32.1808C155.533 32.1745 155.047 31.9552 154.784 31.5228C154.759 31.4789 154.768 31.4069 154.812 31.3066C154.862 31.2126 154.934 31.1217 155.028 31.034C155.122 30.9525 155.213 30.8961 155.301 30.8648C155.389 30.8335 155.448 30.8397 155.479 30.8836C155.705 31.2659 156.134 31.4601 156.767 31.4664C157.218 31.4727 157.529 31.3536 157.698 31.1092C157.93 30.7833 158.096 30.2632 158.196 29.5488C157.582 30.2883 156.943 30.5515 156.278 30.3384C155.401 30.0627 155.188 28.449 155.639 25.4974C155.652 25.4222 155.696 25.3376 155.771 25.2436C155.852 25.1433 155.931 25.0681 156.006 25.018C156.087 24.9616 156.153 24.9303 156.203 24.924C156.26 24.9115 156.3 24.9177 156.325 24.9428C156.35 24.9616 156.36 24.9929 156.354 25.0368C156.078 26.9231 156.068 28.2422 156.325 28.9942C156.451 29.3514 156.632 29.5676 156.871 29.6428C157.259 29.7681 157.563 29.7023 157.782 29.4454C157.952 29.2511 158.118 28.9535 158.281 28.5524C158.287 28.5336 158.296 28.5117 158.309 28.4866C158.365 27.8474 158.434 26.8573 158.516 25.5162ZM164.328 26.3528C164.278 26.4468 164.202 26.5377 164.102 26.6254C164.008 26.7069 163.92 26.757 163.839 26.7758C163.758 26.7946 163.707 26.7789 163.689 26.7288C163.582 26.4405 163.41 26.1961 163.172 25.9956C162.94 25.7888 162.695 25.6666 162.438 25.629C162.181 25.5914 161.981 25.6133 161.837 25.6948C161.711 25.958 161.746 26.2369 161.94 26.5314C162.109 26.7883 162.448 27.0171 162.955 27.2176C163.3 27.3555 163.529 27.4557 163.642 27.5184C164.143 27.8255 164.387 28.2203 164.375 28.7028C164.362 29.0851 164.181 29.4517 163.83 29.8026C163.19 30.4355 162.467 30.5546 161.658 30.1598C161.201 29.9342 160.825 29.5864 160.53 29.1164C160.505 29.0725 160.515 29.0036 160.558 28.9096C160.609 28.8156 160.681 28.7247 160.775 28.637C160.869 28.5493 160.959 28.4897 161.047 28.4584C161.135 28.4271 161.191 28.4333 161.216 28.4772C161.555 29.0099 161.987 29.3702 162.514 29.5582C162.852 29.6773 163.156 29.6929 163.425 29.6052C163.513 29.5739 163.566 29.5457 163.585 29.5206C163.667 29.3827 163.682 29.2041 163.632 28.9848C163.544 28.5837 163.197 28.261 162.589 28.0166C162.564 28.0041 162.492 27.9759 162.373 27.932C162.034 27.8004 161.809 27.6907 161.696 27.603C161.126 27.1894 160.938 26.6943 161.132 26.1178C161.207 25.8859 161.332 25.6791 161.508 25.4974C161.953 25.0337 162.435 24.8394 162.955 24.9146C163.281 24.9585 163.573 25.0932 163.83 25.3188C164.087 25.5381 164.271 25.8076 164.384 26.1272C164.403 26.1773 164.384 26.2525 164.328 26.3528ZM168.405 29.2386C168.486 29.2198 168.533 29.2417 168.546 29.3044C168.558 29.3608 168.533 29.4391 168.471 29.5394C168.408 29.6334 168.286 29.7556 168.104 29.906C167.922 30.0501 167.722 30.1692 167.503 30.2632C167.07 30.4387 166.747 30.3948 166.534 30.1316C166.334 29.8997 166.281 29.4579 166.375 28.8062L166.619 25.9768H165.905C165.811 25.9768 165.785 25.9173 165.829 25.7982C165.879 25.6415 165.973 25.5131 166.111 25.4128C166.255 25.3063 166.362 25.253 166.431 25.253H166.685L166.826 23.6456C166.832 23.5767 166.873 23.4921 166.948 23.3918C167.023 23.2915 167.101 23.2132 167.183 23.1568C167.264 23.1004 167.33 23.0659 167.38 23.0534C167.493 23.0221 167.546 23.0565 167.54 23.1568L167.362 25.253C167.637 25.253 167.91 25.253 168.179 25.253C168.273 25.253 168.298 25.3157 168.255 25.441C168.204 25.5977 168.107 25.7261 167.963 25.8264C167.825 25.9267 167.722 25.9768 167.653 25.9768H167.296L167.089 28.3268C167.089 28.3331 167.089 28.3393 167.089 28.3456C167.001 28.9096 167.042 29.2856 167.211 29.4736C167.368 29.6679 167.559 29.7149 167.785 29.6146C167.891 29.5645 168.001 29.4924 168.114 29.3984C168.233 29.3044 168.33 29.2511 168.405 29.2386ZM170.709 27.8004C170.684 28.9597 171.188 29.5739 172.222 29.6428C172.442 29.6616 172.639 29.6553 172.815 29.624C173.04 29.5864 173.166 29.5425 173.191 29.4924C173.241 29.3984 173.313 29.3075 173.407 29.2198C173.507 29.1321 173.598 29.0757 173.679 29.0506C173.761 29.0193 173.817 29.0287 173.849 29.0788C173.893 29.1603 173.833 29.3075 173.67 29.5206C173.507 29.7337 173.338 29.8997 173.162 30.0188C172.993 30.1441 172.827 30.2287 172.664 30.2726C172.301 30.3729 171.972 30.4011 171.677 30.3572C170.443 30.2757 169.888 29.4955 170.013 28.0166C170.051 27.5591 170.12 27.1643 170.22 26.8322C170.321 26.4938 170.48 26.1773 170.7 25.8828C171.201 25.206 171.825 24.8833 172.57 24.9146C173.755 24.9585 174.25 25.7449 174.055 27.274C173.999 27.5247 173.874 27.7033 173.679 27.8098C173.604 27.8537 173.523 27.8725 173.435 27.8662L170.709 27.8004ZM170.775 27.0954C170.819 27.0829 170.853 27.0766 170.878 27.0766L173.379 27.133C173.36 26.1617 172.912 25.6603 172.034 25.629C171.608 25.6102 171.323 25.7011 171.179 25.9016C170.991 26.1523 170.856 26.5502 170.775 27.0954ZM175.892 25.5068C175.898 25.4379 175.939 25.3533 176.014 25.253C176.089 25.1527 176.168 25.0775 176.249 25.0274C176.331 24.971 176.4 24.9365 176.456 24.924C176.569 24.8989 176.619 24.9334 176.606 25.0274L176.541 25.6478C176.716 25.4473 176.929 25.2749 177.18 25.1308C177.43 24.9867 177.687 24.9146 177.951 24.9146C178.565 24.9083 178.947 25.2154 179.097 25.8358C179.317 25.5475 179.567 25.3219 179.849 25.159C180.131 24.9961 180.404 24.9146 180.667 24.9146C181.551 24.9021 181.914 25.6384 181.758 27.1236L181.532 29.7556C181.526 29.8245 181.485 29.9091 181.41 30.0094C181.335 30.1097 181.256 30.188 181.175 30.2444C181.093 30.3008 181.027 30.3353 180.977 30.3478C180.865 30.3791 180.811 30.3447 180.818 30.2444L181.043 27.6124C181.187 26.2839 180.893 25.6227 180.16 25.629C179.978 25.629 179.843 25.6541 179.755 25.7042C179.542 25.8295 179.345 26.1585 179.163 26.6912C179.157 26.8291 179.147 26.9732 179.135 27.1236L178.909 29.7556C178.903 29.8245 178.862 29.9091 178.787 30.0094C178.712 30.1097 178.634 30.188 178.552 30.2444C178.471 30.3008 178.405 30.3353 178.355 30.3478C178.242 30.3791 178.189 30.3447 178.195 30.2444L178.421 27.6124C178.433 27.4683 178.439 27.3586 178.439 27.2834C178.439 27.2082 178.442 27.1581 178.449 27.133C178.468 26.1178 178.132 25.6165 177.443 25.629C177.261 25.629 177.126 25.6541 177.039 25.7042C176.819 25.8295 176.616 26.1742 176.428 26.7382C176.428 26.7445 176.428 26.7539 176.428 26.7664L176.108 29.765C176.102 29.8402 176.061 29.9248 175.986 30.0188C175.911 30.1191 175.832 30.1943 175.751 30.2444C175.669 30.3008 175.601 30.3353 175.544 30.3478C175.431 30.3729 175.381 30.3353 175.394 30.235L175.892 25.5068Z" fill="white"/>
</svg>
