<svg width="142" height="61" viewBox="0 0 142 61" fill="none" xmlns="http://www.w3.org/2000/svg">
<rect width="142" height="61" fill="#13132F"/>
<path d="M13.048 18.98H5.32L3.192 25H0.476L7.616 4.952H10.92L17.948 25H15.12L13.048 18.98ZM12.32 16.824L9.24 7.724L5.964 16.824H12.32ZM23.1077 4.952V22.732H32.9917V25H20.5597V4.952H23.1077ZM38.9808 4.952V25H36.3768V4.952H38.9808ZM51.9291 17.132V25H49.3811V17.132L41.6531 4.952H44.7891L50.6971 14.724L56.4091 4.952H59.4611L51.9291 17.132ZM64.6487 15.872V22.732H76.4647V25H62.1007V4.952H75.9887V7.22H64.6487V13.604H75.5687V15.872H64.6487ZM88.7644 25H85.9924L78.7964 4.952H81.5404L87.4484 21.92L92.9924 4.952H95.7084L88.7644 25ZM112.712 10.72H110.304C110.248 8.10667 108.577 6.8 105.292 6.8C103.948 6.8 102.865 7.108 102.044 7.724C101.223 8.32133 100.812 9.11467 100.812 10.104C100.812 10.8507 101.055 11.448 101.54 11.896C102.044 12.3253 102.903 12.6987 104.116 13.016L108.876 14.248C111.9 15.0507 113.412 16.7307 113.412 19.288C113.412 21.136 112.675 22.6387 111.2 23.796C109.893 24.804 108.017 25.308 105.572 25.308C102.473 25.308 100.224 24.3747 98.824 22.508C98.0774 21.5 97.6854 20.1467 97.648 18.448H100.056V18.504C100.056 19.96 100.551 21.0893 101.54 21.892C102.548 22.676 103.948 23.068 105.74 23.068C107.383 23.068 108.605 22.7973 109.408 22.256C110.36 21.6027 110.836 20.688 110.836 19.512C110.836 18.0187 109.613 16.964 107.168 16.348L102.184 15.06C99.5707 14.388 98.264 12.848 98.264 10.44C98.264 8.536 98.9827 7.06133 100.42 6.016C101.671 5.10133 103.323 4.644 105.376 4.644C108.288 4.644 110.369 5.49333 111.62 7.192C112.348 8.18133 112.712 9.25467 112.712 10.412C112.712 10.468 112.712 10.5707 112.712 10.72Z" fill="white"/>
<path d="M12.34 40.64C12.2333 40.84 12.08 41.0333 11.88 41.22C11.68 41.3933 11.4867 41.5133 11.3 41.58C11.1133 41.6333 10.9933 41.6133 10.94 41.52C10.4867 40.6533 9.86 39.9333 9.06 39.36C8.26 38.7867 7.40667 38.4533 6.5 38.36C5.94 38.3067 5.44667 38.3467 5.02 38.48C4.60667 38.6 4.31333 38.7467 4.14 38.92C3.98 39.0933 3.86 39.4067 3.78 39.86C3.7 40.3 3.77333 40.7867 4 41.32C4.22667 41.8533 4.58667 42.3 5.08 42.66C5.57333 43.0067 6.18 43.3067 6.9 43.56C6.94 43.5733 7.2 43.6667 7.68 43.84C8.16 44 8.52667 44.1333 8.78 44.24C10.5 44.9733 11.4667 46.06 11.68 47.5C11.8267 48.46 11.5933 49.4 10.98 50.32C10.6333 50.8533 10.2067 51.3133 9.7 51.7C8.43333 52.66 7.05333 53.0133 5.56 52.76C4.56 52.5867 3.64667 52.18 2.82 51.54C1.99333 50.8867 1.35333 50.0933 0.9 49.16C0.846667 49.0533 0.873333 48.9 0.98 48.7C1.1 48.5 1.26 48.3133 1.46 48.14C1.66 47.9533 1.84667 47.8333 2.02 47.78C2.20667 47.7133 2.32667 47.7333 2.38 47.84C2.82 48.72 3.42667 49.4667 4.2 50.08C4.98667 50.6933 5.8 51.0733 6.64 51.22C7.49333 51.3667 8.19333 51.3467 8.74 51.16C9.3 50.96 9.66667 50.7267 9.84 50.46C10.16 49.9667 10.2667 49.3667 10.16 48.66C9.97333 47.3933 9.08 46.4133 7.48 45.72C7.24 45.6133 6.88 45.4867 6.4 45.34C5.16 44.9133 4.26667 44.5 3.72 44.1C3.17333 43.7 2.76667 43.2 2.5 42.6C2.23333 41.9867 2.16667 41.3133 2.3 40.58C2.44667 39.8467 2.84667 39.1333 3.5 38.44C4.68667 37.2133 6.07333 36.68 7.66 36.84C8.66 36.9467 9.58 37.3067 10.42 37.92C11.2733 38.52 11.94 39.2733 12.42 40.18C12.4733 40.2733 12.4467 40.4267 12.34 40.64ZM15.6405 42.42C15.6538 42.26 15.7405 42.08 15.9005 41.88C16.0605 41.6667 16.2271 41.5 16.4005 41.38C16.5738 41.26 16.7138 41.1867 16.8205 41.16C17.0605 41.0933 17.1738 41.1667 17.1605 41.38L17.0805 42.3C17.8805 41.54 18.8271 41.1667 19.9205 41.18C23.2271 41.2067 24.4271 43.22 23.5205 47.22C23.1738 48.74 22.7271 49.88 22.1805 50.64C21.6338 51.4 21.0738 51.94 20.5005 52.26C19.9271 52.5933 19.3871 52.76 18.8805 52.76C17.7471 52.76 16.8738 52.3733 16.2605 51.6C16.2605 51.6 16.0938 53.52 15.7605 57.36C15.7471 57.5067 15.6605 57.6867 15.5005 57.9C15.3405 58.1133 15.1738 58.28 15.0005 58.4C14.8271 58.52 14.6871 58.5933 14.5805 58.62C14.3405 58.6867 14.2271 58.6133 14.2405 58.4L15.6405 42.42ZM16.6805 46.96C16.6805 46.9733 16.6805 46.9933 16.6805 47.02C16.9071 49.8333 18.0138 51.24 20.0005 51.24C20.4271 51.24 20.7071 51.1667 20.8405 51.02C21.3071 50.54 21.7205 49.4867 22.0805 47.86C22.4538 46.22 22.3738 44.9533 21.8405 44.06C21.3071 43.1667 20.2938 42.7133 18.8005 42.7C18.0938 42.7 17.6538 42.8133 17.4805 43.04C17.3205 43.2667 17.1671 43.64 17.0205 44.16C16.8871 44.6667 16.8138 45.1067 16.8005 45.48C16.7871 45.84 16.7671 46.0533 16.7405 46.12L16.6805 46.96ZM35.2878 50.64C35.4611 50.6133 35.5611 50.6667 35.5878 50.8C35.6145 50.92 35.5545 51.0867 35.4078 51.3C35.2745 51.5133 35.0411 51.7533 34.7078 52.02C34.3745 52.2867 34.0211 52.4933 33.6478 52.64C32.9145 52.9333 32.4611 52.8 32.2878 52.24C32.2078 52.0133 32.1745 51.5933 32.1878 50.98C31.4945 51.82 30.7945 52.3667 30.0878 52.62C29.3811 52.8733 28.7211 52.9133 28.1078 52.74C26.2011 52.2067 25.6278 50.0067 26.3878 46.14C26.6411 44.86 27.0878 43.8067 27.7278 42.98C28.8211 41.5667 30.1611 40.9667 31.7478 41.18C32.4145 41.26 32.9345 41.5067 33.3078 41.92C33.6145 41.5067 33.9345 41.26 34.2678 41.18C34.3745 41.1533 34.4545 41.1667 34.5078 41.22C34.5745 41.26 34.6011 41.3333 34.5878 41.44C33.8145 47.08 33.5411 50.2533 33.7678 50.96C33.8745 51.28 34.0478 51.38 34.2878 51.26C34.3945 51.2067 34.5478 51.1 34.7478 50.94C34.9478 50.7667 35.1278 50.6667 35.2878 50.64ZM32.2878 48.98C32.3811 47.9133 32.4478 47.2333 32.4878 46.94C32.8345 44.3267 32.1878 42.9133 30.5478 42.7C30.1478 42.6467 29.8011 42.6533 29.5078 42.72C29.1078 42.8 28.8345 42.9267 28.6878 43.1C28.3545 43.5267 28.0811 44.2867 27.8678 45.38C27.6545 46.4733 27.5611 47.44 27.5878 48.28C27.6678 49.9333 28.2545 50.9133 29.3478 51.22C30.1878 51.46 30.8345 51.3067 31.2878 50.76C31.6211 50.36 31.9545 49.7667 32.2878 48.98ZM45.1203 50.26C45.2936 50.0467 45.4803 49.8733 45.6803 49.74C45.8936 49.6067 46.0603 49.5533 46.1803 49.58C46.3136 49.6067 46.367 49.7 46.3403 49.86C46.247 50.38 46.047 50.8467 45.7403 51.26C45.4336 51.66 45.1136 51.9733 44.7803 52.2C44.4603 52.4267 44.1536 52.58 43.8603 52.66C43.1936 52.82 42.627 52.8533 42.1603 52.76C39.067 52.4533 37.807 50.66 38.3803 47.38C38.887 44.54 39.9803 42.64 41.6603 41.68C42.3136 41.3067 42.947 41.1067 43.5603 41.08C45.707 41 46.8203 42.02 46.9003 44.14C46.9003 44.2733 46.827 44.4467 46.6803 44.66C46.547 44.8733 46.3936 45.0467 46.2203 45.18C46.047 45.3 45.9003 45.38 45.7803 45.42C45.527 45.5133 45.3936 45.46 45.3803 45.26C45.3003 43.42 44.3336 42.54 42.4803 42.62C41.8936 42.6467 41.4803 42.7667 41.2403 42.98C40.6536 43.5267 40.2136 44.6067 39.9203 46.22C39.6403 47.82 39.7803 49.02 40.3403 49.82C40.9136 50.62 41.907 51.0933 43.3203 51.24C43.9203 51.2933 44.3936 51.26 44.7403 51.14C44.7803 51.0467 44.807 50.9267 44.8203 50.78C44.847 50.6333 44.947 50.46 45.1203 50.26ZM51.3514 47.32C51.2981 49.7867 52.3714 51.0933 54.5714 51.24C55.0381 51.28 55.4581 51.2667 55.8314 51.2C56.3114 51.12 56.5781 51.0267 56.6314 50.92C56.7381 50.72 56.8914 50.5267 57.0914 50.34C57.3047 50.1533 57.4981 50.0333 57.6714 49.98C57.8447 49.9133 57.9647 49.9333 58.0314 50.04C58.1247 50.2133 57.9981 50.5267 57.6514 50.98C57.3047 51.4333 56.9447 51.7867 56.5714 52.04C56.2114 52.3067 55.8581 52.4867 55.5114 52.58C54.7381 52.7933 54.0381 52.8533 53.4114 52.76C50.7847 52.5867 49.6047 50.9267 49.8714 47.78C49.9514 46.8067 50.0981 45.9667 50.3114 45.26C50.5247 44.54 50.8647 43.8667 51.3314 43.24C52.3981 41.8 53.7247 41.1133 55.3114 41.18C57.8314 41.2733 58.8847 42.9467 58.4714 46.2C58.3514 46.7333 58.0847 47.1133 57.6714 47.34C57.5114 47.4333 57.3381 47.4733 57.1514 47.46L51.3514 47.32ZM51.4914 45.82C51.5847 45.7933 51.6581 45.78 51.7114 45.78L57.0314 45.9C56.9914 43.8333 56.0381 42.7667 54.1714 42.7C53.2647 42.66 52.6581 42.8533 52.3514 43.28C51.9514 43.8133 51.6647 44.66 51.4914 45.82ZM79.3384 51.48C79.3251 51.64 79.2384 51.82 79.0784 52.02C78.9184 52.2333 78.7518 52.4 78.5784 52.52C78.4051 52.64 78.2651 52.7133 78.1584 52.74C77.9184 52.8067 77.8051 52.7333 77.8184 52.52L78.8784 40.18L73.9384 48.88C73.6584 49.2933 73.4118 49.5733 73.1984 49.72C72.9984 49.8667 72.8518 49.9333 72.7584 49.92C72.6784 49.8933 72.6118 49.8133 72.5584 49.68L69.0384 40.98L67.9384 51.5C67.9251 51.66 67.8384 51.84 67.6784 52.04C67.5184 52.2533 67.3518 52.4133 67.1784 52.52C67.0051 52.64 66.8651 52.7133 66.7584 52.74C66.5184 52.7933 66.4051 52.7133 66.4184 52.5L67.9184 38.1C67.9318 37.94 68.0651 37.7667 68.3184 37.58C68.5718 37.3933 68.8184 37.24 69.0584 37.12L69.4184 36.94L73.6584 47.46L79.1784 37.76C79.4984 37.2133 79.8651 36.9533 80.2784 36.98C80.3718 36.98 80.4718 37.0133 80.5784 37.08L79.3384 51.48ZM95.2455 51.48C95.2321 51.64 95.1455 51.82 94.9855 52.02C94.8255 52.2333 94.6588 52.4 94.4855 52.52C94.3121 52.64 94.1721 52.7133 94.0655 52.74C93.8255 52.8067 93.7121 52.7333 93.7255 52.52L94.7855 40.18L89.8455 48.88C89.5655 49.2933 89.3188 49.5733 89.1055 49.72C88.9055 49.8667 88.7588 49.9333 88.6655 49.92C88.5855 49.8933 88.5188 49.8133 88.4655 49.68L84.9455 40.98L83.8455 51.5C83.8321 51.66 83.7455 51.84 83.5855 52.04C83.4255 52.2533 83.2588 52.4133 83.0855 52.52C82.9121 52.64 82.7721 52.7133 82.6655 52.74C82.4255 52.7933 82.3121 52.7133 82.3255 52.5L83.8255 38.1C83.8388 37.94 83.9721 37.7667 84.2255 37.58C84.4788 37.3933 84.7255 37.24 84.9655 37.12L85.3255 36.94L89.5655 47.46L95.0855 37.76C95.4055 37.2133 95.7721 36.9533 96.1855 36.98C96.2788 36.98 96.3788 37.0133 96.4855 37.08L95.2455 51.48ZM110.272 41.14C110.259 41.3 110.172 41.4867 110.012 41.7C109.852 41.9133 109.686 42.08 109.512 42.2C109.339 42.3067 109.199 42.3733 109.092 42.4C108.852 42.4667 108.739 42.3933 108.752 42.18C108.806 41.62 108.712 41.0733 108.472 40.54C108.246 39.9933 107.899 39.54 107.432 39.18C106.966 38.82 106.446 38.5867 105.872 38.48C105.312 38.3733 104.766 38.3933 104.232 38.54C102.566 38.9933 101.406 40.6267 100.752 43.44C100.259 45.56 100.392 47.3267 101.152 48.74C101.579 49.54 102.172 50.1667 102.932 50.62C103.692 51.06 104.499 51.2667 105.352 51.24C106.219 51.2133 106.919 51.0133 107.452 50.64C107.986 50.2667 108.366 49.7733 108.592 49.16C108.672 48.9733 108.806 48.78 108.992 48.58C109.192 48.38 109.386 48.24 109.572 48.16C109.772 48.0667 109.912 48.06 109.992 48.14C110.086 48.2067 110.099 48.3333 110.032 48.52C109.806 49.08 109.472 49.64 109.032 50.2C108.606 50.7467 108.106 51.22 107.532 51.62C106.519 52.34 105.479 52.7133 104.412 52.74C103.359 52.78 102.419 52.56 101.592 52.08C100.779 51.6 100.146 50.94 99.6925 50.1C98.8658 48.5533 98.7258 46.6267 99.2725 44.32C99.8858 41.6667 101.072 39.64 102.832 38.24C104.232 37.1333 105.646 36.7067 107.072 36.96C107.726 37.08 108.306 37.34 108.812 37.74C109.319 38.14 109.706 38.64 109.972 39.24C110.239 39.84 110.339 40.4733 110.272 41.14Z" fill="white"/>
</svg>
