<svg width="30" height="30" viewBox="0 0 30 30" fill="none" xmlns="http://www.w3.org/2000/svg">
<path d="M11.25 28.75C10.5625 28.75 10 28.1875 10 27.5V16.25C10 15.5625 10.5625 15 11.25 15H18.75C19.4375 15 20 15.5625 20 16.25V27.5C20 28.1875 19.4375 28.75 18.75 28.75H11.25ZM12.5 13.75C11.8125 13.75 11.25 13.1875 11.25 12.5V6.5625C11.25 6.5625 13.75 3.75 14.6875 1.25C16.0375 2.0875 17.4 2.9125 18.075 4.7875C18.75 6.6625 18.75 9.5875 18.75 12.5C18.75 13.1875 18.1875 13.75 17.5 13.75H12.5Z" fill="white"/>
</svg>
