<svg width="30" height="30" viewBox="0 0 30 30" fill="none" xmlns="http://www.w3.org/2000/svg">
<g clip-path="url(#clip0_278_717)">
<path d="M28.7774 29.0625L28.9024 27.66C28.9848 26.7521 28.7338 25.8453 28.1961 25.1091C27.6585 24.3729 26.871 23.8577 25.9811 23.66L20.7661 22.5V15C20.7661 14.5027 20.5686 14.0258 20.2169 13.6742C19.8653 13.3225 19.3884 13.125 18.8911 13.125C18.3938 13.125 17.9169 13.3225 17.5653 13.6742C17.2137 14.0258 17.0161 14.5027 17.0161 15V27.1875L14.8911 25.59C14.5223 25.313 14.066 25.1785 13.606 25.211C13.1459 25.2436 12.7131 25.441 12.387 25.7671C12.0609 26.0932 11.8634 26.5261 11.8309 26.9861C11.7983 27.4462 11.9329 27.9025 12.2099 28.2713L12.8024 29.0625M13.2661 17.8125H2.95361C2.45633 17.8125 1.97942 17.615 1.62779 17.2633C1.27616 16.9117 1.07861 16.4348 1.07861 15.9375V2.8125C1.07861 2.31522 1.27616 1.83831 1.62779 1.48667C1.97942 1.13504 2.45633 0.9375 2.95361 0.9375H5.76611M20.7661 0.9375H23.5786C24.0759 0.9375 24.5528 1.13504 24.9044 1.48667C25.2561 1.83831 25.4536 2.31522 25.4536 2.8125V15.9375C25.4536 16.4348 25.2561 16.9117 24.9044 17.2633C24.5528 17.615 24.0759 17.8125 23.5786 17.8125M12.3286 17.8125V21.5625M9.51611 21.5625H13.2661" stroke="white" stroke-linecap="round" stroke-linejoin="round"/>
<path d="M19.2386 9.41L19.7074 8.16C19.8134 7.87682 19.8494 7.57219 19.8122 7.27209C19.7751 6.972 19.6659 6.68534 19.494 6.43657C19.3221 6.1878 19.0926 5.98429 18.825 5.84341C18.5574 5.70253 18.2598 5.62846 17.9574 5.6275H8.36364C8.06103 5.6276 7.76294 5.70094 7.49483 5.84126C7.22672 5.98158 6.99655 6.18471 6.82399 6.43329C6.65143 6.68188 6.5416 6.96854 6.50388 7.26879C6.46616 7.56904 6.50167 7.87396 6.60739 8.1575L8.24239 12.5162C8.30916 12.6946 8.42864 12.8483 8.58495 12.9571C8.74126 13.0658 8.92697 13.1244 9.11739 13.125H13.2636M8.46989 5.625L10.3449 0.9375M17.8449 5.625L15.9699 0.9375" stroke="white" stroke-linecap="round" stroke-linejoin="round"/>
</g>
<defs>
<clipPath id="clip0_278_717">
<rect width="30" height="30" fill="white"/>
</clipPath>
</defs>
</svg>
