<svg width="30" height="30" viewBox="0 0 30 30" fill="none" xmlns="http://www.w3.org/2000/svg">
<path d="M15.0012 2C11.4706 2 11.0275 2.01547 9.64088 2.07852C8.2569 2.14196 7.31219 2.36101 6.48565 2.68249C5.63051 3.01451 4.90524 3.45872 4.1827 4.18151C3.45951 4.90417 3.0153 5.62943 2.68224 6.48418C2.35984 7.31097 2.14053 8.25606 2.07826 9.63937C2.01625 11.0261 2 11.4694 2 15C2 18.5306 2.0156 18.9724 2.07852 20.3589C2.14222 21.7429 2.36127 22.6876 2.6825 23.5141C3.01478 24.3693 3.45899 25.0945 4.18179 25.8171C4.9042 26.5402 5.62947 26.9855 6.48396 27.3175C7.31115 27.639 8.25599 27.858 9.63971 27.9215C11.0264 27.9845 11.4692 28 14.9996 28C18.5305 28 18.9723 27.9845 20.3589 27.9215C21.7428 27.858 22.6886 27.639 23.5158 27.3175C24.3705 26.9855 25.0948 26.5402 25.817 25.8171C26.5402 25.0945 26.9843 24.3693 27.3175 23.5145C27.637 22.6876 27.8565 21.7426 27.9215 20.3592C27.9837 18.9726 28 18.5306 28 15C28 11.4694 27.9837 11.0263 27.9215 9.63963C27.8565 8.25567 27.637 7.3111 27.3175 6.48457C26.9843 5.62943 26.5402 4.90417 25.817 4.18151C25.094 3.45846 24.3708 3.01425 23.515 2.68262C22.6862 2.36101 21.741 2.14183 20.357 2.07852C18.9703 2.01547 18.5288 2 14.9971 2H15.0012ZM13.8349 4.34271C14.1811 4.34219 14.5674 4.34271 15.0012 4.34271C18.4723 4.34271 18.8836 4.35519 20.2543 4.41746C21.5218 4.47544 22.2098 4.6872 22.668 4.86517C23.2748 5.10073 23.7073 5.38244 24.162 5.83756C24.617 6.29256 24.8986 6.72584 25.1348 7.33255C25.3128 7.79014 25.5248 8.4781 25.5825 9.74558C25.6448 11.116 25.6583 11.5276 25.6583 14.997C25.6583 18.4664 25.6448 18.8781 25.5825 20.2484C25.5245 21.5159 25.3128 22.2039 25.1348 22.6616C24.8992 23.2683 24.617 23.7003 24.162 24.155C23.707 24.61 23.275 24.8916 22.668 25.1273C22.2103 25.306 21.5218 25.5173 20.2543 25.5753C18.8839 25.6375 18.4723 25.6511 15.0012 25.6511C11.5299 25.6511 11.1185 25.6375 9.74813 25.5753C8.48063 25.5168 7.79267 25.305 7.33403 25.127C6.72745 24.8913 6.29403 24.6098 5.83903 24.1548C5.38403 23.6998 5.10245 23.2675 4.86624 22.6606C4.68827 22.2028 4.47624 21.5149 4.41852 20.2474C4.35625 18.877 4.34377 18.4654 4.34377 14.9938C4.34377 11.5221 4.35625 11.1128 4.41852 9.74233C4.4765 8.47484 4.68827 7.78689 4.86624 7.32865C5.10193 6.72194 5.38403 6.28866 5.83916 5.83366C6.29429 5.37867 6.72745 5.09696 7.33416 4.86088C7.79241 4.68213 8.48063 4.47089 9.74813 4.41265C10.9474 4.35844 11.4121 4.34219 13.8349 4.33946V4.34271ZM21.9406 6.5012C21.0793 6.5012 20.3806 7.1993 20.3806 8.06067C20.3806 8.92191 21.0793 9.62065 21.9406 9.62065C22.8018 9.62065 23.5006 8.92191 23.5006 8.06067C23.5006 7.19943 22.8018 6.50068 21.9406 6.50068V6.5012ZM15.0012 8.32392C11.3144 8.32392 8.32515 11.3131 8.32515 15C8.32515 18.6869 11.3144 21.6747 15.0012 21.6747C18.6881 21.6747 21.6763 18.6869 21.6763 15C21.6763 11.3132 18.6878 8.32392 15.0009 8.32392H15.0012ZM15.0012 10.6666C17.3943 10.6666 19.3346 12.6066 19.3346 15C19.3346 17.3931 17.3943 19.3334 15.0012 19.3334C12.608 19.3334 10.6679 17.3931 10.6679 15C10.6679 12.6066 12.6079 10.6666 15.0012 10.6666Z" fill="white"/>
</svg>
