<svg width="20" height="23" viewBox="0 0 20 23" fill="none" xmlns="http://www.w3.org/2000/svg">
<path d="M9.99922 10.925C9.23672 10.925 8.50545 10.6221 7.96629 10.0829C7.42712 9.54377 7.12422 8.8125 7.12422 8.05C7.12422 7.2875 7.42712 6.55623 7.96629 6.01707C8.50545 5.4779 9.23672 5.175 9.99922 5.175C10.7617 5.175 11.493 5.4779 12.0322 6.01707C12.5713 6.55623 12.8742 7.2875 12.8742 8.05C12.8742 8.42755 12.7999 8.8014 12.6554 9.15022C12.5109 9.49903 12.2991 9.81596 12.0322 10.0829C11.7652 10.3499 11.4482 10.5617 11.0994 10.7062C10.7506 10.8506 10.3768 10.925 9.99922 10.925ZM9.99922 0C7.86423 0 5.81668 0.848122 4.30701 2.35779C2.79734 3.86746 1.94922 5.91501 1.94922 8.05C1.94922 14.0875 9.99922 23 9.99922 23C9.99922 23 18.0492 14.0875 18.0492 8.05C18.0492 5.91501 17.2011 3.86746 15.6914 2.35779C14.1818 0.848122 12.1342 0 9.99922 0Z" fill="white"/>
</svg>
