<svg width="30" height="30" viewBox="0 0 30 30" fill="none" xmlns="http://www.w3.org/2000/svg">
<path d="M14.9995 6.92981C15.5097 6.92981 16.0155 7.03047 16.4868 7.22571C16.9579 7.42087 17.3859 7.70698 17.7466 8.0675C18.1073 8.42826 18.3941 8.8569 18.5894 9.32825C18.7845 9.79946 18.8852 10.3045 18.8853 10.8146C18.8853 11.3248 18.7846 11.8305 18.5894 12.3019C18.3941 12.7732 18.1073 13.2009 17.7466 13.5616C17.3858 13.9224 16.9581 14.2092 16.4868 14.4044C16.0155 14.5997 15.5097 14.7003 14.9995 14.7003C13.9693 14.7002 12.9809 14.2901 12.2524 13.5616C11.5241 12.8331 11.1147 11.8447 11.1147 10.8146C11.1149 9.78436 11.524 8.79598 12.2524 8.0675C12.9809 7.33903 13.9693 6.92992 14.9995 6.92981Z" fill="white" stroke="white" stroke-width="0.6"/>
<path d="M18.8188 10.1511C18.8862 10.5231 18.9009 10.9038 18.8579 11.282C18.7864 11.9101 18.5631 12.5119 18.2065 13.0339C17.85 13.556 17.371 13.9829 16.812 14.2781C16.2529 14.5733 15.6298 14.7283 14.9976 14.7283C14.3655 14.7282 13.743 14.5732 13.1841 14.2781C12.625 13.9829 12.1461 13.556 11.7896 13.0339C11.433 12.5119 11.2097 11.9101 11.1382 11.282C11.0952 10.9038 11.109 10.523 11.1763 10.1511C11.5022 10.6899 11.9372 11.1582 12.4604 11.5193C13.2069 12.0344 14.0926 12.3107 14.9995 12.3113H15.0005C15.9066 12.3098 16.7916 12.0348 17.5376 11.5193C18.0601 11.1582 18.4933 10.6894 18.8188 10.1511Z" fill="#E3E3E3" stroke="white" stroke-width="0.6"/>
<path d="M14.9999 15C15.5495 15 16.0937 14.8918 16.6015 14.6814C17.1092 14.4711 17.5706 14.1629 17.9592 13.7742C18.3478 13.3856 18.6561 12.9243 18.8664 12.4165C19.0767 11.9088 19.1849 11.3646 19.1849 10.815C19.1849 10.2654 19.0767 9.72122 18.8664 9.21347C18.6561 8.70573 18.3478 8.24438 17.9592 7.85576C17.5706 7.46715 17.1092 7.15888 16.6015 6.94857C16.0937 6.73825 15.5495 6.63 14.9999 6.63C13.89 6.63 12.8255 7.07092 12.0407 7.85576C11.2559 8.6406 10.8149 9.70507 10.8149 10.815C10.8149 11.9249 11.2559 12.9894 12.0407 13.7742C12.8255 14.5591 13.89 15 14.9999 15Z" stroke="white" stroke-width="0.6" stroke-linecap="round" stroke-linejoin="round"/>
<path d="M9.62012 17.691H20.3809C20.6182 17.6913 20.8458 17.7859 21.0137 17.9537C21.1815 18.1218 21.2764 18.35 21.2764 18.5875V26.9567C21.2765 27.0742 21.2529 27.1908 21.208 27.2994C21.1631 27.408 21.0977 27.5073 21.0146 27.5905C20.9316 27.6736 20.8322 27.7388 20.7236 27.7838C20.615 27.8288 20.4984 27.8522 20.3809 27.8522H9.62012C9.38253 27.8522 9.15439 27.7584 8.98633 27.5905C8.81835 27.4225 8.72375 27.1942 8.72363 26.9567V18.5875C8.72351 18.4698 8.74701 18.3525 8.79199 18.2438C8.83697 18.1352 8.90321 18.0369 8.98633 17.9537C9.06944 17.8706 9.16777 17.8044 9.27637 17.7594C9.38512 17.7144 9.50243 17.6909 9.62012 17.691Z" stroke="white" stroke-width="0.6"/>
<path d="M9.61914 17.691H20.3809C20.6182 17.691 20.8468 17.7859 21.0146 17.9537C21.1822 18.1215 21.2764 18.3494 21.2764 18.5865V20.9791C21.0194 20.7866 20.7067 20.6787 20.3818 20.6783H9.62012C9.29463 20.6783 8.98105 20.7862 8.72363 20.9791V18.5875C8.72363 18.35 8.81845 18.1218 8.98633 17.9537C9.13309 17.807 9.32555 17.7165 9.53027 17.6959L9.61914 17.691Z" stroke="white" stroke-width="0.6"/>
<path d="M6.6314 1.84753V6.63003C6.63063 7.14763 6.79808 7.65147 7.10853 8.06563C7.41898 8.47979 7.85562 8.78184 8.35266 8.92628L10.9689 9.68878M23.3702 1.84753V6.63003C23.3709 7.14779 23.2032 7.65175 22.8925 8.06593C22.5818 8.48011 22.1449 8.78207 21.6477 8.92628L19.0327 9.68878M11.4427 13.02L7.70015 13.8575C7.38183 13.9277 7.08125 14.0623 6.81693 14.2531C6.55261 14.4439 6.33015 14.6867 6.16327 14.9667C5.99639 15.2468 5.88861 15.558 5.84659 15.8812C5.80456 16.2045 5.82917 16.5329 5.91891 16.8463L6.4164 18.5875M18.5577 13.02L22.3002 13.8575C22.6185 13.9277 22.9191 14.0623 23.1834 14.2531C23.4477 14.4439 23.6702 14.6867 23.837 14.9667C24.0039 15.2468 24.1117 15.558 24.1537 15.8812C24.1958 16.2045 24.1711 16.5329 24.0814 16.8463L23.5839 18.5875M9.62016 28.1525C9.30289 28.1525 8.99862 28.0265 8.77428 27.8022C8.54994 27.5778 8.4239 27.2735 8.4239 26.9563V18.5875C8.42374 18.4304 8.45457 18.2748 8.51463 18.1296C8.57469 17.9843 8.6628 17.8524 8.77391 17.7413C8.88503 17.6302 9.01697 17.5421 9.16218 17.482C9.30739 17.4219 9.46302 17.3911 9.62016 17.3913H20.3814C20.6985 17.3916 21.0024 17.5178 21.2265 17.7421C21.4505 17.9664 21.5764 18.2705 21.5764 18.5875V26.9563C21.5766 27.1133 21.5458 27.2688 21.4858 27.414C21.4258 27.5591 21.3378 27.691 21.2268 27.8021C21.1159 27.9132 20.9841 28.0013 20.839 28.0614C20.6939 28.1216 20.5384 28.1525 20.3814 28.1525H9.62016Z" stroke="white" stroke-width="0.6" stroke-linecap="round" stroke-linejoin="round"/>
<path d="M15 9.91858C15.2377 9.91859 15.4657 10.0132 15.6338 10.1813C15.8018 10.3493 15.8965 10.5774 15.8965 10.8151C15.8965 11.0528 15.8019 11.2808 15.6338 11.4489C15.4657 11.6169 15.2377 11.7115 15 11.7115C14.7623 11.7115 14.5343 11.6169 14.3662 11.4489C14.1981 11.2808 14.1035 11.0528 14.1035 10.8151C14.1035 10.5774 14.1981 10.3494 14.3662 10.1813C14.5343 10.0132 14.7623 9.91858 15 9.91858Z" fill="white" stroke="white" stroke-width="0.6"/>
<path d="M16.4932 17.691V22.0475L15 20.5543L13.5059 22.0485V17.691H16.4932Z" fill="white" stroke="white" stroke-width="0.6"/>
<path d="M1.25 1.84753L6.63 3.04378L12.0112 1.84753M17.9887 1.84753L23.37 3.04378L28.75 1.84753M15 12.0113C15.3173 12.0113 15.6215 11.8853 15.8459 11.6609C16.0702 11.4366 16.1962 11.1323 16.1962 10.815C16.1962 10.4978 16.0702 10.1935 15.8459 9.96916C15.6215 9.74482 15.3173 9.61878 15 9.61878C14.6827 9.61878 14.3785 9.74482 14.1541 9.96916C13.9298 10.1935 13.8037 10.4978 13.8037 10.815C13.8037 11.1323 13.9298 11.4366 14.1541 11.6609C14.3785 11.8853 14.6827 12.0113 15 12.0113ZM16.7937 17.3913V22.7725L15 20.9788L13.2062 22.7725V17.3913H16.7937Z" stroke="white" stroke-width="0.6" stroke-linecap="round" stroke-linejoin="round"/>
</svg>
