<svg width="30" height="30" viewBox="0 0 30 30" fill="none" xmlns="http://www.w3.org/2000/svg">
<path d="M7.3125 15L6.9375 13.125C6.6875 13.0208 6.45333 12.9117 6.235 12.7975C6.01667 12.6833 5.7925 12.5425 5.5625 12.375L3.75 12.9375L2.5 10.8125L3.9375 9.5625C3.89583 9.29167 3.875 9.02083 3.875 8.75C3.875 8.47917 3.89583 8.20833 3.9375 7.9375L2.5 6.6875L3.75 4.5625L5.5625 5.125C5.79167 4.95833 6.01583 4.8175 6.235 4.7025C6.45417 4.5875 6.68833 4.47833 6.9375 4.375L7.3125 2.5H9.8125L10.1875 4.375C10.4375 4.47917 10.6721 4.58875 10.8913 4.70375C11.1104 4.81875 11.3342 4.95917 11.5625 5.125L13.375 4.5625L14.625 6.6875L13.1875 7.9375C13.2292 8.20833 13.25 8.47917 13.25 8.75C13.25 9.02083 13.2292 9.29167 13.1875 9.5625L14.625 10.8125L13.375 12.9375L11.5625 12.375C11.3333 12.5417 11.1096 12.6825 10.8913 12.7975C10.6729 12.9125 10.4383 13.0217 10.1875 13.125L9.8125 15H7.3125ZM8.5625 11.25C9.25 11.25 9.83875 11.0054 10.3287 10.5163C10.8187 10.0271 11.0633 9.43833 11.0625 8.75C11.0617 8.06167 10.8171 7.47333 10.3287 6.985C9.84042 6.49667 9.25167 6.25167 8.5625 6.25C7.87333 6.24833 7.285 6.49333 6.7975 6.985C6.31 7.47667 6.065 8.065 6.0625 8.75C6.06 9.435 6.305 10.0238 6.7975 10.5163C7.29 11.0087 7.87833 11.2533 8.5625 11.25ZM18.5 28.75L17.9375 26.125C17.5833 26 17.2554 25.8488 16.9537 25.6713C16.6521 25.4938 16.355 25.2908 16.0625 25.0625L13.5625 25.875L11.8125 22.875L13.8125 21.125C13.7708 20.75 13.75 20.375 13.75 20C13.75 19.625 13.7708 19.25 13.8125 18.875L11.8125 17.125L13.5625 14.125L16.0625 14.9375C16.3542 14.7083 16.6512 14.505 16.9537 14.3275C17.2562 14.15 17.5842 13.9992 17.9375 13.875L18.5 11.25H22L22.5625 13.875C22.9167 14 23.245 14.1513 23.5475 14.3288C23.85 14.5063 24.1467 14.7092 24.4375 14.9375L26.9375 14.125L28.6875 17.125L26.6875 18.875C26.7292 19.25 26.75 19.625 26.75 20C26.75 20.375 26.7292 20.75 26.6875 21.125L28.6875 22.875L26.9375 25.875L24.4375 25.0625C24.1458 25.2917 23.8492 25.4946 23.5475 25.6713C23.2458 25.8479 22.9175 25.9992 22.5625 26.125L22 28.75H18.5ZM20.25 23.75C21.2917 23.75 22.1771 23.3854 22.9062 22.6562C23.6354 21.9271 24 21.0417 24 20C24 18.9583 23.6354 18.0729 22.9062 17.3438C22.1771 16.6146 21.2917 16.25 20.25 16.25C19.2083 16.25 18.3229 16.6146 17.5938 17.3438C16.8646 18.0729 16.5 18.9583 16.5 20C16.5 21.0417 16.8646 21.9271 17.5938 22.6562C18.3229 23.3854 19.2083 23.75 20.25 23.75Z" fill="white"/>
</svg>
