<svg width="30" height="30" viewBox="0 0 30 30" fill="none" xmlns="http://www.w3.org/2000/svg">
<path d="M14.001 7.39551L6.24902 15.1455L2.35254 11.249L6.20703 7.39551H14.001Z" stroke="white" stroke-width="1.66667"/>
<path d="M22.6035 23.7922L18.749 27.6458L14.8525 23.7493L22.6035 15.9993V23.7922Z" stroke="white" stroke-width="1.66667"/>
<path fill-rule="evenodd" clip-rule="evenodd" d="M4.11621 16.6162L1.61621 19.1162L3.38371 20.8837L5.88371 18.3837L4.11621 16.6162ZM1.61621 26.6162L7.86621 20.3662L9.63371 22.1337L3.38371 28.3837L1.61621 26.6162ZM9.11621 26.6162L11.6162 24.1162L13.3837 25.8837L10.8837 28.3837L9.11621 26.6162Z" fill="white"/>
<path d="M27.916 2.08301V9.65527L14.3359 23.2354L6.76367 15.6631L20.3447 2.08301H27.916Z" stroke="white" stroke-width="1.66667"/>
<path fill-rule="evenodd" clip-rule="evenodd" d="M21.7674 10L18.7499 13.0175L16.9824 11.25L19.9999 8.23254L21.7674 10Z" fill="white"/>
</svg>
