<svg width="26" height="30" viewBox="0 0 26 30" fill="none" xmlns="http://www.w3.org/2000/svg">
<path d="M11.0703 18.0469C11.059 18.0804 10.9885 18.0776 10.8587 18.0385C10.7289 17.9994 10.5512 17.9353 10.3255 17.846L9.98698 17.6953C9.49045 17.4721 8.99957 17.1987 8.51432 16.875C8.43533 16.8192 8.20399 16.6434 7.82031 16.3477C7.43663 16.0519 7.22222 15.8929 7.17708 15.8705C6.42101 17.0201 5.66493 18.0301 4.90885 18.9007C3.99479 19.9609 3.40234 20.5748 3.13151 20.7422C3.08637 20.7645 2.97635 20.7868 2.80143 20.8092C2.62652 20.8315 2.52214 20.8315 2.48828 20.8092C2.55599 20.7645 3.01866 20.2511 3.8763 19.269C4.11328 19.0011 4.5957 18.3594 5.32357 17.3438C6.05143 16.3281 6.49436 15.6696 6.65234 15.3683C6.84418 15.0335 7.13194 14.4838 7.51563 13.7193C7.89931 12.9548 8.10243 12.5223 8.125 12.4219C8.03472 12.4107 7.41406 12.5949 6.26302 12.9743C6.17274 12.9967 6.01758 13.0385 5.79753 13.0999C5.57747 13.1613 5.38281 13.2143 5.21354 13.2589C5.04427 13.3036 4.94835 13.3315 4.92578 13.3426C4.90321 13.365 4.89193 13.4235 4.89193 13.5184C4.89193 13.6133 4.88628 13.6663 4.875 13.6775C4.81858 13.7891 4.64366 13.8728 4.35026 13.9286C4.09071 14.0067 3.82552 14.0067 3.55469 13.9286C3.35156 13.8839 3.19358 13.7667 3.08073 13.577C3.03559 13.51 3.00738 13.3817 2.99609 13.192C3.0638 13.1696 3.20204 13.1417 3.41081 13.1083C3.61957 13.0748 3.78602 13.0413 3.91016 13.0078C4.56467 12.8292 5.15712 12.6507 5.6875 12.4721C6.81597 12.0815 7.39149 11.8862 7.41406 11.8862C7.52691 11.8638 7.76953 11.755 8.14193 11.5597C8.51432 11.3644 8.76259 11.2444 8.88672 11.1998C8.98828 11.1663 9.10959 11.1217 9.25065 11.0658C9.39171 11.01 9.47352 10.9794 9.49609 10.9738C9.51866 10.9682 9.55252 10.971 9.59766 10.9821C9.62023 11.1161 9.61458 11.3002 9.58073 11.5346C9.58073 11.5569 9.5102 11.7076 9.36914 11.9866C9.22808 12.2656 9.07856 12.5642 8.92057 12.8823C8.76259 13.2003 8.66667 13.3873 8.63281 13.4431C8.35069 14.0011 7.91623 14.7321 7.32943 15.6362L8.41276 16.1049C8.54818 16.1719 8.96853 16.3504 9.67383 16.6406C10.3791 16.9308 10.76 17.0871 10.8164 17.1094C10.8615 17.1205 10.9208 17.2628 10.9941 17.5363C11.0675 17.8097 11.0929 17.9799 11.0703 18.0469ZM7.60026 9.91071C7.63411 10.0781 7.61155 10.2344 7.53255 10.3795C7.39714 10.6362 7.11502 10.8482 6.6862 11.0156C6.34766 11.1496 6.00911 11.2165 5.67057 11.2165C5.37717 11.183 5.10069 11.0379 4.84115 10.7812C4.68316 10.6138 4.5816 10.385 4.53646 10.0949L4.55339 10.0446C4.58724 10.0781 4.69727 10.106 4.88346 10.1283C5.06966 10.1507 5.21918 10.1507 5.33203 10.1283C5.44488 10.106 5.77214 10.0167 6.3138 9.86049C6.72005 9.72656 7.03038 9.64844 7.24479 9.62612C7.43663 9.62612 7.55512 9.72098 7.60026 9.91071ZM19.4154 12.0703L20.4818 15.8705L18.1289 15.1674L19.4154 12.0703ZM0.660156 25.4632L12.4076 21.5792V4.30246L0.660156 8.20312V25.4632ZM21.6667 20.1562L23.3932 20.6752L20.3294 9.67634L18.6367 9.15737L14.9805 18.1306L16.707 18.6496L17.4688 16.808L21.0404 17.8962L21.6667 20.1562ZM13.1523 4.05134L22.8516 7.1317V0.770089L13.1523 4.05134ZM18.4167 26.1998L21.0911 26.4174L20.1771 29.096L19.5 27.9911C18.033 28.9174 16.4757 29.5201 14.8281 29.7991C14.1736 29.933 13.6602 30 13.2878 30H11.8659C10.9744 30 9.84874 29.7824 8.48893 29.3471C7.12912 28.9118 6.09375 28.4375 5.38281 27.9241C5.29253 27.846 5.2474 27.7567 5.2474 27.6562C5.2474 27.567 5.27561 27.4916 5.33203 27.4302C5.38845 27.3689 5.46181 27.3382 5.55208 27.3382C5.59722 27.3382 5.69878 27.38 5.85677 27.4637C6.01476 27.5474 6.18685 27.6395 6.37305 27.74C6.55925 27.8404 6.67491 27.9018 6.72005 27.9241C7.54384 28.3371 8.44379 28.6802 9.41992 28.9537C10.3961 29.2271 11.2847 29.3638 12.0859 29.3638C13.158 29.3638 14.1003 29.2829 14.9128 29.1211C15.7253 28.9593 16.6111 28.6775 17.5703 28.2757C17.7396 28.1975 17.9117 28.111 18.0866 28.0162C18.2615 27.9213 18.4533 27.8153 18.6621 27.6981C18.8709 27.5809 19.0317 27.4888 19.1445 27.4219L18.4167 26.1998ZM26 8.13616V26.1998L12.8984 22.0815C12.7405 22.1484 10.6246 22.8599 6.55078 24.216C2.477 25.572 0.400608 26.25 0.321615 26.25C0.174913 26.25 0.0733507 26.1775 0.0169271 26.0324C0.0169271 26.0212 0.0112847 26.0045 0 25.9821V7.93527C0.0338542 7.83482 0.0564236 7.77902 0.0677083 7.76786C0.124132 7.70089 0.236979 7.63951 0.40625 7.58371C1.61372 7.18192 2.45443 6.9029 2.92839 6.74665V0.31808L12.3737 3.63281C12.3963 3.63281 13.3019 3.32589 15.0905 2.71205C16.8791 2.09821 18.6621 1.49275 20.4395 0.895647C22.2168 0.298549 23.128 0 23.1732 0C23.3989 0 23.5117 0.117188 23.5117 0.351562V7.34933L26 8.13616Z" fill="white"/>
</svg>
